<?xml version="1.0" standalone="no"?>
<!DOCTYPE svg PUBLIC "-//W3C//DTD SVG 20010904//EN"
 "http://www.w3.org/TR/2001/REC-SVG-20010904/DTD/svg10.dtd">
<svg version="1.0" xmlns="http://www.w3.org/2000/svg"
 width="751.000000pt" height="751.000000pt" viewBox="0 0 751.000000 751.000000"
 preserveAspectRatio="xMidYMid meet">

<g transform="translate(0.000000,751.000000) scale(0.100000,-0.100000)"
fill="#000000" stroke="none">
<path d="M4445 7450 c-18 -8 -18 -9 5 -9 14 0 45 4 70 8 l45 8 -50 1 c-27 0
-59 -3 -70 -8z"/>
<path d="M4485 7429 c-16 -5 -45 -7 -62 -5 -18 2 -33 -1 -33 -7 0 -5 -14 -7
-32 -5 -42 7 -58 1 -51 -18 5 -15 83 -20 97 -7 9 9 88 4 99 -7 5 -4 3 -11 -4
-16 -7 -4 -14 -3 -16 3 -4 11 -59 3 -84 -13 -7 -4 -28 -7 -46 -6 -18 2 -33 -1
-33 -6 0 -15 -57 -41 -78 -35 -16 4 -22 1 -22 -11 0 -12 -9 -16 -35 -16 -19 0
-35 -3 -35 -8 0 -4 -10 -12 -22 -17 -13 -6 -25 -19 -27 -30 -3 -20 -3 -20 18
-1 24 22 35 19 18 -4 -13 -16 -62 -42 -87 -45 -27 -3 -90 -29 -90 -37 0 -12 6
-10 48 12 28 16 38 17 40 7 1 -7 15 -19 30 -25 20 -9 21 -11 6 -8 -12 2 -48
-9 -80 -25 -32 -15 -61 -26 -65 -23 -8 5 -69 -25 -86 -42 -7 -7 -34 -20 -60
-30 -27 -10 -52 -23 -58 -30 -5 -6 -36 -22 -67 -34 -32 -13 -54 -28 -51 -33 4
-7 -1 -8 -13 -3 -10 4 -15 4 -11 0 7 -7 -30 -44 -45 -44 -5 0 -13 -11 -19 -24
-7 -14 -17 -22 -25 -19 -8 3 -14 -1 -14 -11 0 -8 -15 -23 -32 -32 -38 -19
-260 -242 -293 -294 -13 -19 -32 -45 -44 -57 -12 -12 -21 -25 -21 -28 0 -3 -7
-13 -15 -22 -24 -27 -105 -154 -105 -164 0 -5 -3 -9 -7 -9 -9 0 -62 -91 -80
-135 -8 -20 -12 -24 -12 -11 -1 15 -4 16 -16 6 -8 -7 -15 -22 -15 -34 0 -12
-9 -27 -20 -34 -11 -7 -20 -17 -20 -24 0 -6 10 -3 22 8 l21 19 -19 -33 c-15
-27 -16 -34 -5 -41 9 -6 10 -11 2 -15 -16 -11 -31 2 -24 21 4 10 2 14 -4 10
-6 -4 -13 -2 -15 5 -3 9 -6 9 -12 0 -4 -7 -3 -12 3 -12 6 0 8 -7 5 -15 -7 -18
14 -75 28 -75 5 0 11 8 14 18 3 9 22 52 42 94 25 52 43 77 55 78 21 0 22 3 -6
-61 -13 -30 -22 -61 -20 -70 2 -9 -3 -21 -11 -28 -8 -7 -12 -21 -8 -33 3 -14
1 -19 -6 -14 -8 5 -10 2 -6 -9 7 -18 -21 -66 -37 -62 -7 1 -14 -4 -16 -11 -3
-7 1 -11 8 -10 14 3 17 -25 5 -60 -10 -31 -27 -17 -20 16 5 23 3 22 -12 -8
-10 -19 -21 -37 -25 -40 -9 -7 -39 -80 -38 -94 0 -6 4 -2 9 9 6 14 9 15 9 5 1
-8 -8 -32 -19 -53 -24 -45 -43 -100 -60 -182 -17 -77 -30 -92 -30 -34 -1 41
-2 43 -16 24 -8 -11 -20 -20 -26 -20 -12 0 -37 -84 -43 -145 -5 -47 -35 -159
-50 -190 -11 -22 -45 -192 -45 -226 0 -7 6 -14 13 -16 9 -2 10 -13 0 -48 -6
-25 -12 -37 -12 -27 -1 9 -5 17 -11 17 -5 0 -11 12 -11 28 -2 23 -2 24 -6 4
-5 -27 -23 -19 -23 10 0 40 -10 11 -15 -43 -15 -167 -18 -222 -19 -301 -1 -78
2 -89 23 -112 19 -20 22 -31 16 -58 -4 -18 -12 -38 -17 -45 -6 -7 -5 -14 3
-18 31 -20 38 66 13 172 -15 66 -14 183 2 296 6 36 7 37 22 21 12 -12 16 -31
14 -66 -3 -30 0 -48 7 -48 6 0 12 20 12 48 l2 47 6 -42 c7 -44 21 -70 21 -40
0 10 5 17 11 17 13 0 42 69 35 86 -3 7 -1 16 5 19 16 11 62 132 79 210 5 22
18 76 30 120 12 44 27 103 34 131 7 28 18 60 25 72 6 11 11 36 11 54 0 18 7
42 15 52 8 11 15 29 15 39 0 11 6 25 14 31 7 6 23 38 35 71 13 33 28 71 34 85
6 14 9 31 8 38 -1 7 2 12 6 11 21 -4 33 2 33 16 0 8 6 15 13 15 7 0 13 10 14
22 1 12 15 34 30 49 55 53 65 69 58 102 l-5 32 15 -30 c8 -16 13 -21 10 -10
-3 10 -8 40 -10 65 -2 25 -2 36 1 25 9 -36 27 -65 40 -65 7 0 22 12 33 28 16
21 20 23 21 10 0 -10 3 -18 6 -18 12 0 53 37 48 43 -3 3 -1 14 6 24 10 16 10
16 5 -4 -4 -13 -4 -23 0 -23 14 0 65 31 65 40 0 14 -17 12 -23 -2 -4 -10 -6
-10 -6 0 -1 21 19 53 30 47 5 -4 9 -2 9 4 0 5 9 9 19 8 15 -1 17 -4 9 -14 -6
-8 -8 -16 -5 -19 6 -6 101 74 133 113 12 14 27 22 33 19 6 -4 14 0 17 9 5 12
10 13 19 5 10 -9 19 -6 34 9 12 12 21 26 21 31 0 6 6 10 13 10 7 0 21 11 31
25 10 14 25 25 32 25 8 0 14 7 14 15 0 8 7 15 15 15 31 0 87 42 99 74 4 13 13
17 30 14 20 -4 22 -1 18 16 -5 19 -4 19 11 7 14 -11 18 -11 23 2 3 9 12 13 20
10 10 -4 17 2 21 16 3 12 13 21 24 21 11 0 44 14 74 31 30 17 60 27 66 23 7
-4 9 -3 5 4 -9 15 32 26 49 12 9 -7 15 -8 20 0 3 5 -1 10 -9 10 -9 0 -16 4
-16 9 0 4 12 6 26 3 16 -3 29 1 35 9 7 12 11 11 24 -2 12 -12 27 -14 58 -10
36 6 68 6 112 0 6 -1 47 2 93 6 75 7 82 6 82 -10 0 -10 3 -15 8 -11 4 4 7 13
7 19 0 7 8 13 19 15 10 2 16 0 13 -5 -3 -5 8 -10 26 -10 18 0 41 -2 52 -3 11
-2 30 0 43 4 16 5 22 3 22 -7 0 -10 7 -13 20 -10 11 3 20 0 20 -6 0 -5 7 -8
15 -5 8 4 21 2 28 -3 6 -6 28 -9 47 -9 19 1 41 -5 49 -12 7 -7 22 -10 32 -7
11 4 19 2 19 -4 0 -6 -6 -11 -12 -11 -7 -1 -1 -8 15 -16 15 -8 27 -19 27 -24
0 -6 10 -10 23 -10 13 0 27 -3 30 -6 4 -4 33 -8 64 -9 90 -3 91 -4 69 -20 -19
-14 -18 -15 17 -15 20 0 42 -6 49 -14 11 -11 14 -11 24 2 13 18 49 8 41 -12
-4 -9 2 -14 16 -14 38 -1 91 -14 106 -26 7 -6 19 -11 25 -11 35 -3 125 -76
126 -102 0 -7 5 -13 10 -13 6 0 10 -7 10 -16 0 -10 6 -14 15 -10 9 3 15 -1 15
-11 0 -17 37 -56 63 -66 8 -3 17 -17 21 -32 4 -14 33 -52 65 -83 32 -31 69
-79 82 -107 13 -27 27 -52 32 -53 4 -2 4 -8 1 -13 -3 -6 9 -23 27 -38 17 -16
29 -33 25 -39 -3 -6 2 -15 11 -21 10 -5 15 -12 11 -16 -3 -4 0 -24 7 -45 7
-21 11 -41 8 -44 -4 -3 -1 -6 6 -6 8 0 11 -6 7 -16 -4 -9 -2 -22 2 -28 5 -6
12 -29 15 -52 4 -22 16 -69 27 -103 11 -35 20 -77 20 -92 0 -31 20 -41 21 -11
0 14 2 14 9 -3 12 -27 12 -37 1 -31 -12 8 -21 -18 -11 -34 6 -10 9 -9 12 1 3
8 5 1 6 -16 1 -42 13 -108 21 -120 4 -5 7 -47 7 -92 -1 -52 3 -84 10 -87 6 -2
14 -24 16 -48 3 -23 9 -52 14 -63 5 -12 -5 -6 -24 15 -17 19 -32 29 -32 22 0
-7 -5 -10 -10 -7 -8 5 -7 12 2 23 11 13 11 14 -1 8 -8 -5 -17 -3 -23 5 -8 11
-9 10 -4 -3 3 -10 0 -20 -6 -24 -7 -4 -5 -10 5 -16 9 -4 22 -21 30 -38 14 -27
14 -28 -4 -17 -10 6 -19 16 -19 22 0 11 -41 40 -52 37 -5 -1 -8 2 -8 8 0 5
-10 10 -22 10 -16 0 -19 3 -10 8 9 6 5 15 -15 34 -33 30 -74 48 -54 24 7 -9
21 -18 32 -21 12 -4 18 -14 17 -30 -1 -13 -6 -21 -10 -19 -5 3 -6 10 -2 15 3
5 -10 16 -29 24 -19 8 -54 29 -78 47 -48 37 -85 53 -139 63 -65 12 -74 16 -59
27 11 7 9 8 -6 4 -52 -12 -117 -17 -111 -8 8 14 -23 19 -64 11 -35 -6 -35 -6
9 -8 70 -2 43 -10 -47 -14 -47 -2 -83 1 -85 6 -2 6 -10 6 -23 -1 -19 -11 -19
-11 1 -12 14 -1 9 -6 -15 -15 -20 -8 -27 -14 -17 -14 10 -1 15 -6 12 -11 -4
-6 -10 -8 -15 -5 -9 6 -50 -33 -50 -47 0 -4 12 -3 26 2 40 15 42 12 6 -10 -18
-11 -40 -20 -50 -20 -23 0 -62 -28 -61 -43 0 -9 2 -9 6 1 2 6 11 12 19 12 14
0 26 5 72 29 36 19 39 4 3 -16 -17 -10 -31 -22 -31 -26 0 -5 13 1 30 13 24 17
33 19 47 10 16 -10 16 -11 1 -6 -9 2 -22 -2 -30 -11 -11 -14 -10 -15 11 -8 16
5 21 4 17 -4 -4 -6 -2 -11 3 -11 6 0 11 5 11 11 0 6 6 9 14 6 8 -3 29 -2 46 3
26 7 30 7 21 -4 -8 -10 -8 -16 1 -23 17 -14 167 -9 195 5 33 18 51 14 23 -5
-14 -9 -28 -21 -31 -26 -4 -5 -12 -6 -19 -2 -9 5 -11 4 -6 -3 11 -17 28 -15
77 11 37 20 63 25 99 18 3 -1 -2 -6 -10 -12 -11 -8 -7 -9 19 -6 29 3 39 -1 58
-24 14 -17 39 -31 60 -35 22 -4 30 -9 22 -14 -8 -5 2 -13 29 -21 23 -7 42 -16
42 -21 0 -4 8 -8 18 -8 9 -1 28 -7 42 -16 14 -8 18 -14 10 -13 -44 4 -38 -4
24 -36 84 -42 82 -40 62 -60 -21 -22 -14 -31 31 -40 21 -4 32 -10 25 -12 -10
-4 -10 -8 -1 -20 11 -13 8 -14 -24 -8 -25 5 -37 4 -37 -4 0 -6 7 -11 15 -11
17 0 65 -49 65 -67 0 -6 -6 -14 -12 -17 -9 -3 -6 -11 11 -25 32 -29 40 -26 39
11 -1 18 4 34 10 36 7 2 12 15 12 28 0 13 5 24 11 24 5 0 8 4 5 9 -11 17 -8
203 3 214 6 6 12 27 12 47 2 33 2 34 6 5 8 -56 23 -50 20 8 -2 31 0 57 4 57
12 0 18 -56 9 -93 -4 -21 -6 -45 -3 -55 2 -10 -7 -74 -21 -143 -54 -274 -70
-386 -81 -584 -13 -235 -34 -376 -76 -525 -56 -198 -69 -250 -69 -286 0 -17
-3 -34 -7 -38 -4 -3 -12 -22 -18 -41 -10 -27 -9 -49 3 -109 8 -42 19 -73 23
-70 16 9 10 -31 -10 -69 -13 -26 -15 -34 -5 -26 16 13 19 2 5 -20 -5 -7 -13
-11 -19 -7 -5 3 -13 -5 -16 -19 -7 -27 -36 -35 -36 -9 0 8 4 13 9 10 5 -4 7 4
4 15 -6 21 -7 21 -20 4 -7 -11 -13 -23 -13 -29 0 -5 -7 -17 -16 -27 -9 -10
-24 -56 -34 -103 -11 -47 -25 -96 -31 -108 -7 -13 -14 -30 -15 -38 -15 -99
-104 -335 -148 -395 -12 -16 -37 -56 -55 -88 -34 -60 -209 -242 -276 -287 -57
-39 -85 -66 -77 -75 4 -4 -3 -4 -15 -1 -17 5 -26 1 -38 -18 -14 -20 -16 -44
-12 -126 3 -79 1 -100 -10 -100 -7 0 -13 -6 -14 -12 -2 -46 -10 -74 -23 -84
-10 -7 -14 -23 -11 -50 2 -21 1 -33 -2 -26 -5 14 -19 -4 -42 -56 -6 -12 -20
-32 -31 -44 -15 -17 -17 -24 -8 -30 10 -6 9 -8 -3 -8 -10 0 -20 -11 -23 -25
-4 -14 -13 -25 -21 -25 -8 0 -15 -9 -15 -20 0 -11 -6 -20 -13 -20 -7 0 -20 -8
-28 -18 -36 -39 -130 -122 -140 -122 -5 0 -7 -4 -4 -10 3 -5 -1 -10 -9 -10 -9
0 -16 -4 -16 -8 0 -5 -16 -17 -35 -28 -19 -10 -35 -21 -36 -24 -4 -31 -9 -45
-17 -48 -12 -4 -117 -86 -185 -145 -66 -57 -127 -97 -147 -97 -10 0 -23 -7
-30 -15 -7 -9 -24 -14 -39 -13 -20 2 -27 -2 -29 -19 -2 -15 -8 -20 -20 -17
-15 5 -15 4 -2 -5 12 -9 12 -13 2 -19 -10 -7 -10 -11 3 -22 13 -11 19 -10 36
5 11 11 18 24 15 30 -2 7 2 12 10 12 8 0 13 -3 11 -6 -21 -38 -57 -121 -61
-141 -2 -14 -7 -33 -11 -42 -7 -17 74 -18 1614 -18 l1621 0 0 140 0 140 -26 6
c-36 9 -224 -4 -314 -22 -41 -8 -133 -35 -205 -59 -182 -62 -222 -69 -292 -55
-32 7 -70 18 -84 26 -41 21 -106 79 -148 131 -123 155 -247 233 -381 241 -94
5 -138 -8 -188 -55 -66 -63 -68 -64 -203 -61 l-124 3 17 68 c9 38 19 71 22 74
6 7 114 5 125 -2 5 -2 14 2 21 10 7 8 18 15 24 15 6 0 29 14 51 32 87 72 201
100 306 75 116 -28 219 -105 360 -268 38 -44 75 -74 115 -94 53 -27 68 -30
149 -29 76 0 120 9 280 52 190 52 341 74 453 66 l42 -3 0 55 0 54 -99 0 c-181
0 -264 -17 -439 -92 -89 -38 -98 -40 -180 -36 -114 4 -187 38 -297 138 -44 40
-117 96 -161 125 -45 29 -85 58 -88 64 -4 6 -12 9 -17 6 -5 -4 -9 0 -9 8 0 17
-41 46 -100 72 -32 15 -67 20 -126 20 -57 0 -80 3 -77 11 2 7 13 10 23 7 34
-9 59 14 58 52 -1 33 -21 54 -33 35 -12 -20 -26 -10 -15 10 12 22 40 27 40 8
0 -6 2 -9 5 -6 3 3 0 18 -6 34 -10 27 -12 27 -19 9 l-9 -20 -1 20 c-3 30 1 49
12 60 8 7 9 5 5 -7 -4 -10 -2 -18 3 -18 5 0 12 -11 16 -25 6 -25 44 -37 44
-13 0 6 6 4 13 -6 12 -17 15 -16 30 15 l17 34 0 -42 c0 -40 2 -43 28 -43 15 0
33 -5 40 -12 9 -9 12 0 11 43 0 39 -3 49 -9 34 -7 -16 -9 -17 -9 -3 -1 20 15
32 24 18 4 -6 8 -31 9 -55 3 -48 6 -55 28 -59 7 -1 19 -5 27 -10 14 -9 31 9
27 28 -2 6 -1 8 1 4 11 -19 18 -5 16 31 -1 33 2 40 24 50 14 6 23 14 20 18 -9
8 19 33 37 33 19 0 48 -22 95 -73 22 -23 37 -33 41 -26 4 6 10 0 14 -15 4 -15
10 -25 15 -22 4 3 13 -6 19 -19 14 -30 119 -101 171 -115 56 -15 120 -12 207
11 43 11 106 28 139 37 44 11 110 16 247 16 165 1 188 3 188 17 0 9 -22 26
-52 41 -205 99 -274 131 -353 164 -49 20 -108 44 -130 54 -22 10 -60 23 -84
30 -25 6 -76 26 -113 42 -38 17 -96 38 -130 47 -66 17 -83 34 -46 46 l23 7
-25 8 c-14 4 -19 8 -12 9 6 1 12 6 12 12 0 6 -12 8 -32 5 -18 -3 -26 -3 -18 1
8 3 18 11 22 17 5 8 14 7 30 -3 21 -13 22 -13 10 1 -10 13 -10 17 0 22 7 3 4
4 -8 1 -12 -3 -27 1 -34 10 -7 8 -19 15 -26 15 -8 0 -14 4 -14 9 0 12 44 20
98 18 57 -3 91 24 95 75 2 35 8 43 30 39 4 0 7 8 7 18 0 11 4 22 10 26 5 3 14
22 20 43 8 32 7 41 -11 66 -22 29 -20 34 16 50 6 3 3 9 -5 15 -13 9 -12 11 5
12 11 1 23 1 28 0 4 0 7 8 7 19 0 12 7 20 16 20 14 0 14 3 4 15 -10 12 -10 15
4 15 9 0 16 4 16 9 0 4 -12 7 -27 5 -16 -2 -22 -1 -15 2 6 3 12 11 12 18 0 27
-42 97 -63 106 -12 4 -48 19 -79 31 -32 13 -58 27 -58 32 0 21 -26 -2 -31 -29
-6 -28 -6 -27 -14 14 -9 48 -20 52 -85 26 -31 -13 -40 -21 -40 -41 0 -13 4
-21 10 -18 6 3 10 1 10 -4 0 -6 -5 -11 -11 -11 -5 0 -7 -5 -3 -12 4 -7 3 -8
-4 -4 -7 4 -12 14 -12 22 0 8 -9 14 -20 14 -13 0 -20 7 -20 19 0 15 -18 31
-35 31 -2 0 3 -16 11 -35 14 -34 11 -61 -5 -50 -5 2 -14 25 -21 50 -15 54 -28
59 -22 9 4 -34 3 -35 -16 -23 -12 7 -27 33 -34 56 -7 24 -16 43 -20 43 -4 0
-5 -8 -1 -17 3 -10 2 -14 -3 -10 -4 4 -10 29 -11 54 -3 42 0 48 47 97 45 47
67 84 131 223 18 40 20 41 76 45 32 2 202 5 378 7 176 2 334 5 350 7 17 1 83
3 148 3 l117 1 0 411 0 410 -47 -6 c-27 -4 -79 -14 -118 -22 -38 -8 -101 -20
-140 -27 -98 -18 -314 -66 -348 -79 -20 -7 -30 -19 -35 -41 l-6 -31 -6 30 -5
30 -18 -37 c-20 -43 -36 -57 -34 -29 0 11 4 18 8 15 8 -5 22 35 19 59 -1 9 4
17 9 17 6 0 11 13 11 29 0 17 4 33 10 36 6 3 10 19 10 36 0 16 5 29 11 29 5 0
7 5 4 10 -3 5 -2 10 4 10 6 0 8 7 5 15 -4 8 -1 15 5 15 6 0 11 9 11 20 0 10 7
40 16 65 8 25 16 63 17 85 0 21 5 38 10 37 18 -4 34 70 42 192 3 41 8 78 11
83 8 12 -10 10 -24 -4 -8 -8 -12 -8 -12 -1 0 17 28 35 41 27 7 -4 9 -3 5 4 -9
14 10 59 39 94 14 16 25 35 25 41 0 6 -11 -4 -25 -23 -30 -41 -33 -25 -11 60
8 30 14 74 14 97 -1 23 5 56 12 73 13 32 6 55 -10 30 -6 -9 -10 -10 -10 -3 0
6 7 19 16 28 13 13 19 14 25 4 6 -10 11 -5 18 14 16 43 13 55 -8 28 -10 -13
-21 -19 -24 -14 -4 6 1 19 11 29 22 25 42 61 42 74 0 5 9 19 20 30 11 11 20
28 20 38 0 14 -2 15 -10 2 -13 -20 -12 -10 1 31 7 19 20 42 30 51 11 11 15 25
12 39 -4 15 0 26 12 35 16 12 18 26 16 111 -1 55 -7 101 -13 104 -6 4 -7 12
-3 19 4 6 9 35 11 63 2 28 8 55 14 61 15 15 12 29 -6 22 -12 -5 -15 -2 -9 11
17 42 17 53 1 53 -9 0 -15 3 -15 8 3 19 -3 31 -28 56 -14 14 -23 29 -20 33 4
3 22 -11 42 -32 19 -21 38 -35 42 -32 3 4 -2 14 -13 21 -10 8 -15 18 -11 23
12 12 72 -60 98 -117 12 -28 26 -50 31 -50 12 0 10 8 -17 54 -14 24 -22 46
-17 50 4 4 -1 13 -10 20 -9 7 -28 35 -42 62 -14 27 -28 47 -33 45 -11 -5 -34
42 -23 49 13 8 -49 110 -67 110 -9 0 -14 3 -10 6 19 19 -143 198 -190 210 -13
4 -23 13 -23 21 0 8 -5 11 -12 7 -7 -4 -8 -3 -4 4 14 23 -5 34 -26 16 -19 -18
-19 -17 -8 10 9 23 8 27 -4 23 -8 -3 -20 1 -26 9 -8 9 -9 14 -2 14 6 0 13 -6
15 -12 4 -9 6 -8 6 3 1 16 -52 72 -64 69 -4 -1 -10 2 -13 6 -4 4 -1 4 6 0 19
-11 14 6 -11 33 -13 15 -34 53 -47 86 -43 110 -100 226 -159 323 -74 123 -174
273 -195 294 -9 9 -16 22 -16 28 0 6 -4 9 -10 5 -11 -7 -50 30 -50 48 0 7 7 4
15 -7 8 -11 15 -17 15 -13 0 15 -33 58 -51 68 -17 9 -18 7 -9 -16 10 -26 9
-25 -30 7 -22 18 -40 36 -40 40 0 13 -99 67 -135 72 -21 4 -42 9 -49 13 -6 4
-15 8 -21 9 -89 19 -123 24 -152 24 -26 0 -33 4 -31 16 4 21 -40 27 -59 9 -15
-15 -63 -7 -63 10 0 9 -16 12 -62 9 -33 -2 -63 -6 -66 -9 -3 -3 -11 0 -18 5
-8 8 -16 6 -27 -4 -8 -9 -23 -12 -37 -9 -13 3 -25 1 -30 -7 -6 -10 -14 -9 -39
3 -29 15 -31 14 -31 -3 0 -13 -5 -18 -16 -13 -8 3 -14 15 -13 27 4 30 -11 67
-22 60 -16 -10 -38 28 -39 66 -1 19 -4 29 -7 22 -8 -21 -33 19 -27 44 4 15 -6
38 -31 73 -20 28 -34 54 -32 58 7 11 -44 71 -63 75 -8 2 -17 6 -20 10 -3 4
-12 3 -20 -3 -12 -7 -12 -11 -2 -17 7 -5 14 -18 17 -30 2 -12 7 -27 10 -32 3
-6 1 -10 -4 -10 -6 0 -11 6 -11 14 0 8 -12 28 -26 45 -14 17 -23 34 -21 38 3
5 -2 17 -10 28 -15 20 -15 19 -10 -3 5 -23 5 -23 -19 4 -14 14 -26 35 -27 45
-1 10 -5 15 -10 12 -4 -3 -17 3 -27 12 -10 9 -24 15 -32 14 -7 -2 -24 3 -38
10 -16 9 -25 10 -28 3 -2 -7 -18 -5 -45 7 -37 16 -47 16 -109 4 -48 -10 -79
-12 -110 -5 -33 8 -37 10 -15 11 15 1 27 5 27 10 0 5 28 7 63 5 40 -3 55 -1
42 4 -27 12 -123 13 -160 1z m-97 -36 c-10 -2 -26 -2 -35 0 -10 3 -2 5 17 5
19 0 27 -2 18 -5z m412 -57 c0 -5 -7 -3 -15 4 -8 6 -19 9 -25 5 -6 -3 -10 3
-10 15 0 20 1 21 25 3 13 -10 25 -22 25 -27z m90 -6 c0 -5 -2 -10 -4 -10 -3 0
-8 5 -11 10 -3 6 -1 10 4 10 6 0 11 -4 11 -10z m-540 -69 c0 -5 -9 -11 -21
-14 -16 -4 -18 -3 -8 9 13 16 29 19 29 5z m87 3 c-3 -3 -12 -4 -19 -1 -8 3 -5
6 6 6 11 1 17 -2 13 -5z m-40 -10 c-3 -3 -12 -4 -19 -1 -8 3 -5 6 6 6 11 1 17
-2 13 -5z m-207 -25 c0 -6 -4 -7 -10 -4 -5 3 -10 11 -10 16 0 6 5 7 10 4 6 -3
10 -11 10 -16z m921 -49 c8 -1 3 -7 -11 -15 -28 -16 -54 -20 -30 -5 12 7 12
12 2 22 -19 19 -14 33 6 15 10 -10 25 -17 33 -17z m-941 1 c0 -10 -50 -25 -58
-17 -3 3 6 10 19 15 31 13 39 13 39 2z m973 -101 c3 -11 2 -20 -3 -20 -8 0
-20 24 -20 41 0 17 17 1 23 -21z m77 -145 c0 -17 -2 -17 -10 -5 -5 8 -10 24
-10 35 0 17 2 17 10 5 5 -8 10 -24 10 -35z m-110 -56 c0 -18 -4 -28 -10 -24
-5 3 -10 20 -10 36 0 18 4 28 10 24 6 -3 10 -20 10 -36z m150 -1 c0 -10 -4
-16 -10 -13 -5 3 -10 -1 -10 -9 0 -8 -5 -18 -11 -22 -8 -4 -9 1 -3 17 4 13 8
34 7 47 -1 18 2 21 13 11 8 -6 14 -20 14 -31z m-607 -42 c1 -31 -1 -56 -5 -56
-5 0 -8 28 -8 62 0 76 11 71 13 -6z m954 -2 c-3 -3 -12 -4 -19 -1 -8 3 -5 6 6
6 11 1 17 -2 13 -5z m-430 -26 c-3 -8 -6 -5 -6 6 -1 11 2 17 5 13 3 -3 4 -12
1 -19z m-140 -30 c-3 -7 -5 -2 -5 12 0 14 2 19 5 13 2 -7 2 -19 0 -25z m1073
-110 c0 -14 -10 -9 -38 18 l-27 26 33 -18 c17 -10 32 -22 32 -26z m103 -71
c31 -32 57 -66 57 -75 0 -11 -14 -2 -41 28 -22 25 -57 62 -77 83 -25 26 -31
36 -17 31 11 -5 46 -34 78 -67z m-1718 53 c3 -5 1 -10 -4 -10 -6 0 -11 5 -11
10 0 6 2 10 4 10 3 0 8 -4 11 -10z m-1166 -39 c-13 -16 -28 -30 -32 -30 -4 -1
4 15 19 34 15 20 29 33 32 31 2 -3 -6 -18 -19 -35z m3021 -201 c0 -5 -5 -10
-11 -10 -5 0 -7 5 -4 10 3 6 8 10 11 10 2 0 4 -4 4 -10z m-1290 -35 c0 -14 -4
-25 -10 -25 -5 0 -10 7 -10 15 0 8 -6 15 -12 15 -9 0 -8 4 2 10 23 15 30 12
30 -15z m-1940 -90 c0 -8 -4 -15 -10 -15 -5 0 -7 7 -4 15 4 8 8 15 10 15 2 0
4 -7 4 -15z m500 -74 c0 -6 -4 -13 -10 -16 -5 -3 -10 1 -10 9 0 9 5 16 10 16
6 0 10 -4 10 -9z m-590 -26 c10 -12 10 -15 -4 -15 -9 0 -16 7 -16 15 0 8 2 15
4 15 2 0 9 -7 16 -15z m3426 -31 c19 -17 22 -22 8 -16 -20 10 -52 42 -42 42 3
0 18 -12 34 -26z m-3435 -61 c-12 -20 -14 -14 -5 12 4 9 9 14 11 11 3 -2 0
-13 -6 -23z m3499 -37 c0 -3 -4 -8 -10 -11 -5 -3 -10 -1 -10 4 0 6 5 11 10 11
6 0 10 -2 10 -4z m-3500 -27 c0 8 3 12 6 9 3 -3 -2 -23 -11 -44 -11 -28 -14
-53 -10 -86 4 -27 3 -48 -2 -48 -5 0 -9 8 -10 18 -1 9 -3 24 -4 32 -6 30 13
132 22 119 7 -12 9 -12 9 0z m-94 -196 c-2 -27 -5 -52 -5 -56 -1 -5 -4 -6 -8
-4 -5 3 -9 -5 -9 -16 -2 -34 -43 -114 -58 -114 -8 0 -11 8 -8 19 2 10 10 18
18 18 8 0 11 6 8 15 -4 8 -2 15 4 15 5 0 12 18 15 40 5 36 37 130 45 130 2 0
1 -21 -2 -47z m3583 -33 c0 -10 -3 -8 -9 5 -12 27 -12 43 0 25 5 -8 9 -22 9
-30z m-3512 -2 c-3 -7 -5 -2 -5 12 0 14 2 19 5 13 2 -7 2 -19 0 -25z m3520
-80 c-3 -8 -6 -5 -6 6 -1 11 2 17 5 13 3 -3 4 -12 1 -19z m-10 -80 c-2 -13 -4
-3 -4 22 0 25 2 35 4 23 2 -13 2 -33 0 -45z m-178 -47 c1 -77 -9 -57 -13 25
-3 43 -1 61 4 49 5 -11 9 -44 9 -74z m-169 19 c0 -5 -2 -10 -4 -10 -3 0 -8 5
-11 10 -3 6 -1 10 4 10 6 0 11 -4 11 -10z m353 -75 c-3 -9 -8 -14 -10 -11 -3
3 -2 9 2 15 9 16 15 13 8 -4z m-30 -32 c-3 -7 -6 -13 -8 -13 -2 0 -5 6 -8 13
-3 8 1 14 8 14 7 0 11 -6 8 -14z m-233 -77 c-1 -15 -26 33 -34 64 -4 15 2 9
14 -14 11 -22 20 -44 20 -50z m254 12 c-4 -6 1 -17 11 -24 15 -11 18 -31 19
-157 0 -80 4 -140 8 -133 4 6 7 -23 6 -64 -1 -51 -3 -61 -5 -30 -3 24 -8 47
-12 50 -4 3 -11 32 -14 65 -4 39 -3 54 3 45 7 -11 10 -2 10 30 0 38 -8 84 -37
208 -3 13 -1 22 6 22 7 0 9 -5 5 -12z m92 -65 c-13 -13 -28 15 -20 38 l7 24
10 -28 c5 -16 6 -31 3 -34z m354 22 c7 -9 10 -18 6 -22 -3 -3 -6 -1 -6 5 0 7
-6 12 -14 12 -8 0 -18 5 -21 10 -10 16 21 11 35 -5z m-729 -60 c17 -36 29 -70
27 -75 -2 -6 -17 23 -35 64 -17 42 -29 76 -26 76 2 0 18 -29 34 -65z m106 -12
c-3 -10 -5 -2 -5 17 0 19 2 27 5 18 2 -10 2 -26 0 -35z m384 24 c-10 -9 -11
-8 -5 6 3 10 9 15 12 12 3 -3 0 -11 -7 -18z m310 -4 c13 -16 12 -17 -3 -4 -10
7 -18 15 -18 17 0 8 8 3 21 -13z m-26 -14 c11 -16 1 -19 -13 -3 -7 8 -8 14 -3
14 5 0 13 -5 16 -11z m-718 -51 c-3 -7 -5 -2 -5 12 0 14 2 19 5 13 2 -7 2 -19
0 -25z m453 3 c0 -5 3 -18 6 -28 5 -16 4 -16 -10 1 -18 23 -20 36 -6 36 6 0
10 -4 10 -9z m364 -50 c-6 -6 -34 20 -34 32 0 6 8 2 19 -9 10 -10 17 -21 15
-23z m-305 -11 c6 -19 7 -30 2 -25 -5 6 -13 24 -17 40 -9 39 0 30 15 -15z
m-467 -6 c-8 -14 -9 -13 -9 10 0 18 3 24 9 18 7 -7 7 -16 0 -28z m698 26 c0
-5 -2 -10 -4 -10 -3 0 -8 5 -11 10 -3 6 -1 10 4 10 6 0 11 -4 11 -10z m-4389
-80 c-20 -72 -36 -107 -28 -60 9 46 39 142 43 137 3 -2 -4 -37 -15 -77z m4017
55 c-3 -3 -9 2 -12 12 -6 14 -5 15 5 6 7 -7 10 -15 7 -18z m-188 5 c0 -5 -2
-10 -4 -10 -3 0 -8 5 -11 10 -3 6 -1 10 4 10 6 0 11 -4 11 -10z m515 -10 c3
-5 1 -10 -4 -10 -6 0 -11 5 -11 10 0 6 2 10 4 10 3 0 8 -4 11 -10z m-275 -26
c0 -7 7 -17 17 -22 11 -6 14 -16 9 -28 -4 -10 -4 -15 0 -12 3 4 17 -5 31 -20
l26 -27 -5 32 c-2 18 -1 30 2 28 4 -3 5 8 3 23 -4 25 -2 24 15 -8 16 -31 16
-38 4 -57 -9 -14 -10 -23 -4 -23 13 0 32 -63 32 -107 0 -18 -4 -33 -10 -33 -5
0 -10 10 -10 21 0 38 -23 101 -31 87 -6 -9 -10 -7 -15 7 -4 11 -21 34 -38 52
-17 18 -31 36 -31 40 0 4 -4 14 -9 21 -4 7 -5 16 -2 19 3 3 1 12 -6 20 -8 11
-7 12 6 7 9 -3 16 -12 16 -20z m-433 -6 c-3 -8 -6 -5 -6 6 -1 11 2 17 5 13 3
-3 4 -12 1 -19z m228 2 c3 -5 1 -10 -4 -10 -6 0 -11 5 -11 10 0 6 2 10 4 10 3
0 8 -4 11 -10z m516 -12 c11 -21 11 -22 -4 -9 -10 7 -17 17 -17 22 0 15 9 10
21 -13z m75 -24 c-2 -6 3 -14 13 -17 20 -5 35 -56 21 -71 -13 -13 -30 3 -30
29 0 13 -4 26 -9 29 -5 3 -11 19 -13 36 -4 24 -2 27 9 18 8 -6 12 -17 9 -24z
m-619 4 c-3 -8 -6 -5 -6 6 -1 11 2 17 5 13 3 -3 4 -12 1 -19z m373 -69 c0 -5
-4 -9 -10 -9 -5 0 -10 7 -10 16 0 8 5 12 10 9 6 -3 10 -10 10 -16z m-383 -21
c-3 -8 -6 -5 -6 6 -1 11 2 17 5 13 3 -3 4 -12 1 -19z m-3900 -20 c-3 -8 -6 -5
-6 6 -1 11 2 17 5 13 3 -3 4 -12 1 -19z m4299 -26 c4 -21 3 -32 -5 -32 -6 0
-11 11 -11 24 0 13 -3 33 -6 43 -5 13 -4 15 4 8 7 -6 15 -25 18 -43z m-359 16
c-3 -8 -6 -5 -6 6 -1 11 2 17 5 13 3 -3 4 -12 1 -19z m247 -3 c11 -8 15 -15
10 -15 -6 0 -19 7 -30 15 -10 8 -14 14 -9 14 6 0 19 -6 29 -14z m386 -10 c0
33 21 1 25 -40 4 -36 3 -36 -16 -19 -11 10 -19 12 -19 6 0 -7 -4 -12 -10 -12
-5 0 -10 19 -10 42 0 39 1 40 15 22 14 -19 14 -19 15 1z m-4583 -27 c-3 -7 -5
-2 -5 12 0 14 2 19 5 13 2 -7 2 -19 0 -25z m35 0 c-7 -7 -12 -8 -12 -2 0 6 3
14 7 17 3 4 9 5 12 2 2 -3 -1 -11 -7 -17z m3937 -20 c-2 -48 9 -106 22 -114
12 -7 11 -34 -1 -34 -10 0 -35 77 -45 138 -5 28 -4 33 4 22 9 -12 11 -11 11 8
0 12 3 22 6 22 3 0 5 -19 3 -42z m122 -25 c-9 -16 -10 -15 -11 8 0 14 3 29 8
33 12 12 14 -22 3 -41z m-174 -5 c-3 -7 -5 -2 -5 12 0 14 2 19 5 13 2 -7 2
-19 0 -25z m250 -20 c7 -16 9 -28 4 -28 -5 0 -14 14 -20 31 -11 32 -14 68 -4
39 3 -8 12 -27 20 -42z m-4187 -28 l-7 -45 -2 41 c0 22 2 44 6 47 10 11 11 5
3 -43z m4575 20 c-4 -12 -9 -19 -12 -17 -3 3 -2 15 2 27 4 12 9 19 12 17 3 -3
2 -15 -2 -27z m-4542 5 c-3 -9 -8 -14 -10 -11 -3 3 -2 9 2 15 9 16 15 13 8 -4z
m4266 -17 c5 -13 6 -27 3 -32 -6 -10 -20 19 -21 42 -1 20 9 14 18 -10z m-4330
-87 c-7 -40 -16 -68 -20 -64 -4 4 -4 26 1 48 6 22 12 53 15 69 12 60 15 15 4
-53z m3978 47 c-3 -7 -5 -2 -5 12 0 14 2 19 5 13 2 -7 2 -19 0 -25z m-3924
-40 c-8 -84 -13 -86 -13 -5 0 37 4 67 9 67 5 0 7 -28 4 -62z m4181 37 c3 -8 1
-15 -4 -15 -6 0 -10 7 -10 15 0 8 2 15 4 15 2 0 6 -7 10 -15z m-294 -30 c0 -8
-2 -15 -4 -15 -2 0 -6 7 -10 15 -3 8 -1 15 4 15 6 0 10 -7 10 -15z m387 -67
c-2 -18 -4 -6 -4 27 0 33 2 48 4 33 2 -15 2 -42 0 -60z m150 45 c-3 -10 -5 -4
-5 12 0 17 2 24 5 18 2 -7 2 -21 0 -30z m-229 -73 c-1 -23 -1 -24 -5 -2 -2 12
-8 20 -12 18 -7 -4 -7 43 0 79 2 16 18 -68 17 -95z m-4231 48 c-3 -7 -5 -2 -5
12 0 14 2 19 5 13 2 -7 2 -19 0 -25z m4039 -81 c0 -48 -3 -72 -7 -57 -10 34
-11 140 -1 140 4 0 7 -37 8 -83z m-946 58 c0 -2 -21 -13 -47 -25 -38 -17 -45
-23 -33 -31 12 -9 12 -10 -3 -5 -10 3 -24 6 -30 6 -7 0 11 13 38 29 47 27 75
37 75 26z m50 -5 c0 -5 -7 -7 -15 -4 -8 4 -15 8 -15 10 0 2 7 4 15 4 8 0 15
-4 15 -10z m842 -20 c3 -16 1 -35 -4 -42 -4 -8 -8 4 -8 30 0 49 6 55 12 12z
m-1188 5 c-7 -16 -24 -21 -24 -6 0 8 7 13 27 20 1 1 0 -6 -3 -14z m965 -28 c1
-5 -3 -5 -9 -2 -5 3 -10 16 -9 28 0 21 1 21 9 2 5 -11 9 -24 9 -28z m-3762 11
c-3 -8 -6 -5 -6 6 -1 11 2 17 5 13 3 -3 4 -12 1 -19z m3098 2 c-3 -5 -14 -10
-23 -10 -15 0 -15 2 -2 10 20 13 33 13 25 0z m1555 -9 c0 -6 -4 -13 -10 -16
-5 -3 -10 1 -10 9 0 9 5 16 10 16 6 0 10 -4 10 -9z m-4640 -61 c-5 -40 -9 -50
-15 -37 -7 16 11 106 19 95 2 -1 0 -28 -4 -58z m3193 43 c-7 -2 -21 -2 -30 0
-10 3 -4 5 12 5 17 0 24 -2 18 -5z m1045 -89 c4 2 5 -30 3 -72 -4 -74 -5 -75
-12 -32 -4 25 -7 79 -6 120 0 52 2 60 4 27 2 -26 7 -46 11 -43z m-261 44 c-3
-8 -6 -5 -6 6 -1 11 2 17 5 13 3 -3 4 -12 1 -19z m320 -10 c-3 -8 -6 -5 -6 6
-1 11 2 17 5 13 3 -3 4 -12 1 -19z m-832 -8 c3 -6 -1 -7 -9 -4 -18 7 -21 14
-7 14 6 0 13 -4 16 -10z m453 -15 c-3 -3 -9 2 -12 12 -6 14 -5 15 5 6 7 -7 10
-15 7 -18z m72 -102 c0 -58 -2 -104 -4 -102 -8 10 -13 209 -5 209 5 0 9 -48 9
-107z m189 -7 c13 -108 21 -134 32 -96 l7 25 1 -27 c1 -16 5 -28 9 -28 5 0 7
13 4 29 -2 16 1 31 6 35 9 6 11 -23 14 -274 1 -60 4 -86 9 -70 5 16 6 4 5 -35
-2 -33 1 -68 7 -79 6 -13 6 -16 -3 -11 -7 5 -11 1 -10 -11 4 -34 0 -43 -15
-38 -11 5 -15 -1 -15 -24 0 -17 -5 -43 -10 -58 -9 -24 -9 -25 5 -14 18 15 18
8 5 -40 -5 -19 -12 -57 -14 -85 -7 -77 -15 -121 -26 -150 -13 -34 -13 -38 2
-29 8 5 9 -2 4 -27 -4 -19 -11 -56 -16 -84 -10 -60 -45 -145 -60 -145 -5 0
-10 -8 -10 -18 0 -20 -29 -64 -30 -44 0 6 -4 12 -10 12 -5 0 -10 -6 -10 -12 0
-7 -7 -26 -15 -42 -14 -26 -14 -31 -1 -38 11 -6 12 -15 6 -39 -14 -46 -23 -50
-15 -6 6 33 5 36 -11 30 -14 -5 -16 -3 -10 13 13 33 47 206 43 218 -2 6 -12
-4 -21 -22 -24 -47 -30 -34 -12 28 11 38 12 50 3 47 -7 -2 -14 -12 -16 -22 -2
-11 -11 -30 -19 -44 -18 -27 -18 -25 -22 -91 l-3 -45 -6 35 -7 35 -8 -48 c-5
-26 -13 -50 -18 -53 -6 -4 -8 1 -5 12 4 11 13 68 22 129 13 86 15 156 10 325
-3 119 -1 255 5 305 5 50 12 147 16 218 3 70 10 127 16 127 5 0 7 -4 4 -9 -3
-4 -8 -73 -10 -152 -3 -79 -8 -192 -12 -251 -5 -83 -4 -108 6 -108 7 0 10 6 7
13 -3 7 1 71 9 143 7 71 14 175 14 232 0 61 4 102 10 102 6 0 10 15 9 33 0 27
-2 29 -9 12 -8 -18 -9 -17 -9 8 -1 16 4 26 12 25 7 -2 13 10 14 32 l1 35 -8
-30 c-7 -28 -8 -27 -9 15 0 25 3 40 7 34 13 -19 42 -25 42 -9 0 8 -7 15 -15
15 -21 0 -19 13 5 28 11 7 20 18 20 25 1 17 39 61 47 53 3 -3 8 -31 11 -61 8
-94 20 -51 16 57 -5 127 9 118 25 -16z m108 57 c-3 -10 -5 -2 -5 17 0 19 2 27
5 18 2 -10 2 -26 0 -35z m-320 -95 c-3 -8 -6 -5 -6 6 -1 11 2 17 5 13 3 -3 4
-12 1 -19z m-317 -78 c0 -5 -2 -10 -4 -10 -3 0 -8 5 -11 10 -3 6 -1 10 4 10 6
0 11 -4 11 -10z m291 -62 c-6 -17 -11 -45 -12 -62 0 -17 -3 -25 -6 -17 -3 8 1
46 8 85 8 39 15 61 17 48 2 -13 -1 -37 -7 -54z m349 -115 c0 -29 -15 -61 -24
-53 -4 5 16 80 21 80 2 0 3 -12 3 -27z m-363 -65 c-2 -18 -4 -6 -4 27 0 33 2
48 4 33 2 -15 2 -42 0 -60z m521 -9 c-6 -16 -12 -29 -13 -27 -6 6 8 58 16 58
4 0 3 -14 -3 -31z m-501 -191 c-2 -29 -3 -6 -3 52 0 58 1 81 3 53 2 -29 2 -77
0 -105z m-20 110 c-3 -7 -5 -2 -5 12 0 14 2 19 5 13 2 -7 2 -19 0 -25z m400
-90 c-3 -8 -6 -5 -6 6 -1 11 2 17 5 13 3 -3 4 -12 1 -19z m-5 -54 c-2 -20 -8
-32 -12 -27 -10 9 -1 63 9 63 4 0 5 -16 3 -36z m-52 -13 c-5 -11 -10 -48 -10
-82 0 -80 -10 -71 -16 14 -4 56 -2 67 13 76 25 14 25 14 13 -8z m-348 -41 c3
-17 1 -33 -4 -36 -4 -3 -8 11 -8 30 0 44 6 47 12 6z m-65 -52 c-3 -8 -6 -5 -6
6 -1 11 2 17 5 13 3 -3 4 -12 1 -19z m517 -45 c-7 -46 -26 -93 -36 -93 -5 0
-8 14 -8 30 0 17 5 30 10 30 6 0 10 7 10 16 0 17 18 54 26 54 3 0 2 -17 -2
-37z m-460 -25 c-9 -71 -14 -73 -14 -5 0 33 4 57 10 57 7 0 8 -19 4 -52z m373
-10 c-3 -8 -6 -5 -6 6 -1 11 2 17 5 13 3 -3 4 -12 1 -19z m-20 -50 c-3 -8 -6
-5 -6 6 -1 11 2 17 5 13 3 -3 4 -12 1 -19z m6 -48 c3 -11 2 -20 -1 -20 -4 0
-8 -23 -9 -50 -3 -57 13 -67 23 -15 3 19 10 35 15 35 14 0 4 -69 -14 -90 -9
-11 -17 -28 -17 -38 0 -14 2 -15 10 -2 8 13 10 13 10 -1 0 -9 -6 -19 -13 -22
-7 -2 -23 -38 -35 -78 -25 -81 -64 -164 -78 -164 -4 0 -9 20 -10 43 -1 28 2
39 7 30 5 -7 9 -11 10 -8 7 39 12 53 29 83 12 20 20 42 19 49 -2 12 2 26 22
76 5 13 10 64 10 113 1 83 9 107 22 59z m67 13 c-1 -22 -26 -51 -38 -45 -9 6
-8 13 6 30 17 22 32 29 32 15z m-493 -105 c-3 -7 -5 -2 -5 12 0 14 2 19 5 13
2 -7 2 -19 0 -25z m90 -160 c-3 -8 -6 -5 -6 6 -1 11 2 17 5 13 3 -3 4 -12 1
-19z m353 18 c0 -3 -4 -8 -10 -11 -5 -3 -10 -1 -10 4 0 6 5 11 10 11 6 0 10
-2 10 -4z m-585 -284 c-10 -10 -16 -12 -13 -7 3 6 8 19 13 30 5 14 9 16 12 7
3 -8 -3 -21 -12 -30z m282 -19 c-3 -10 -5 -2 -5 17 0 19 2 27 5 18 2 -10 2
-26 0 -35z m-77 7 c0 -5 -2 -10 -4 -10 -3 0 -8 5 -11 10 -3 6 -1 10 4 10 6 0
11 -4 11 -10z m-220 -41 c-7 -11 -14 -19 -16 -16 -7 7 7 37 17 37 6 0 5 -9 -1
-21z m301 -40 c-9 -22 -10 -22 -10 -3 -1 11 2 24 6 27 12 12 14 0 4 -24z m46
-1 c-3 -8 -6 -5 -6 6 -1 11 2 17 5 13 3 -3 4 -12 1 -19z m-409 -101 c-12 -26
-25 -47 -30 -47 -11 0 -10 18 2 25 5 3 17 22 26 41 9 19 18 33 20 31 2 -2 -6
-24 -18 -50z m393 26 c-8 -15 -10 -15 -11 -2 0 17 10 32 18 25 2 -3 -1 -13 -7
-23z m67 -38 c-3 -3 -9 2 -12 12 -6 14 -5 15 5 6 7 -7 10 -15 7 -18z m-527
-42 c-12 -20 -14 -14 -5 12 4 9 9 14 11 11 3 -2 0 -13 -6 -23z m449 3 c0 -8
-7 -16 -15 -20 -13 -4 -14 -2 -5 14 13 23 20 26 20 6z m-524 -24 c-18 -16 -18
-16 -6 6 6 13 14 21 18 18 3 -4 -2 -14 -12 -24z m94 -7 c-7 -8 -16 -15 -21
-15 -5 0 -1 9 8 20 9 11 19 17 21 15 3 -3 -1 -11 -8 -20z m457 3 c-3 -8 -6 -5
-6 6 -1 11 2 17 5 13 3 -3 4 -12 1 -19z m-477 -54 c0 -8 -10 -25 -21 -37 -19
-18 -21 -19 -15 -4 3 11 9 30 12 43 6 25 24 24 24 -2z m137 -676 c-3 -7 -5 -2
-5 12 0 14 2 19 5 13 2 -7 2 -19 0 -25z m6 -44 c-8 -21 -23 -17 -23 6 0 13 5
18 14 14 8 -3 12 -12 9 -20z m333 -41 c-10 -10 -19 5 -10 18 6 11 8 11 12 0 2
-7 1 -15 -2 -18z m-58 -58 c-3 -3 -9 2 -12 12 -6 14 -5 15 5 6 7 -7 10 -15 7
-18z m-118 -27 c0 -6 -6 -5 -15 2 -8 7 -15 14 -15 16 0 2 7 1 15 -2 8 -4 15
-11 15 -16z m272 -132 c20 -11 47 -28 60 -38 l23 -19 -24 6 c-16 5 -21 4 -17
-4 14 -22 -4 -10 -48 32 -26 24 -46 47 -46 52 0 6 3 6 8 0 4 -6 23 -19 44 -29z
m113 -126 c3 -5 1 -10 -4 -10 -6 0 -11 5 -11 10 0 6 2 10 4 10 3 0 8 -4 11
-10z m-150 -83 c13 4 16 3 11 -5 -4 -8 0 -12 11 -12 26 -1 -25 -29 -53 -30
-11 0 -24 -3 -28 -7 -9 -9 -38 -13 -48 -7 -9 6 17 35 29 33 20 -5 41 14 35 29
-5 14 -3 15 10 4 8 -7 24 -9 33 -5z m-127 -52 c-6 -14 -13 -23 -15 -21 -5 5
15 46 22 46 3 0 -1 -11 -7 -25z m200 -13 c3 -16 -1 -19 -17 -15 -24 6 -23 5
-15 28 9 21 28 14 32 -13z m-103 -12 c-3 -5 -10 -10 -16 -10 -5 0 -9 5 -9 10
0 6 7 10 16 10 8 0 12 -4 9 -10z m79 -23 c-7 -19 -49 -34 -70 -26 -10 4 -13 8
-6 8 6 1 21 10 32 21 20 20 52 18 44 -3z m-1413 -134 c-9 -16 -10 -16 -11 -1
0 9 3 25 7 35 7 16 8 17 11 1 2 -10 -1 -25 -7 -35z m894 -97 c22 -26 42 -52
43 -57 2 -5 9 -9 15 -9 7 0 25 -14 40 -32 18 -21 27 -26 23 -14 -6 17 -5 17
11 5 10 -8 22 -20 27 -28 7 -11 10 -11 17 0 7 11 11 10 23 -6 14 -18 15 -18
16 -2 0 19 15 23 23 7 3 -6 4 -5 3 2 -2 7 -10 13 -17 12 -8 -1 -21 5 -28 13
-11 12 -10 14 6 11 11 -2 27 3 36 11 15 12 17 10 17 -13 0 -28 9 -33 28 -14 9
9 12 6 12 -15 0 -15 6 -27 13 -27 9 0 9 -2 0 -8 -9 -5 -7 -16 9 -40 22 -35 34
-42 23 -14 -4 11 -3 13 3 7 5 -5 13 -21 17 -35 5 -19 4 -21 -4 -10 -10 13 -11
13 -11 0 -1 -18 -39 28 -40 48 0 6 -5 12 -11 12 -5 0 -7 -4 -4 -10 10 -15 -4
-12 -33 9 -15 10 -45 21 -67 24 -21 4 -52 16 -67 27 -15 11 -32 20 -38 20 -5
0 -10 5 -10 10 0 6 -7 10 -15 10 -23 0 -147 134 -137 148 1 1 -5 19 -13 40
l-15 37 32 -35 c18 -19 51 -57 73 -84z m345 99 c0 -8 -4 -15 -10 -15 -5 0 -7
7 -4 15 4 8 8 15 10 15 2 0 4 -7 4 -15z m11 -40 c9 6 11 4 6 -8 -3 -9 -2 -17
3 -19 4 -2 -4 -12 -18 -22 -15 -11 -22 -14 -16 -7 13 14 7 51 -8 51 -5 0 -6 5
-2 11 5 8 9 8 14 -1 5 -7 13 -9 21 -5z m9 -125 c0 -5 -2 -10 -4 -10 -3 0 -8 5
-11 10 -3 6 -1 10 4 10 6 0 11 -4 11 -10z m-67 -15 c-3 -9 -8 -14 -10 -11 -3
3 -2 9 2 15 9 16 15 13 8 -4z m152 5 c3 -5 2 -10 -4 -10 -5 0 -13 5 -16 10 -3
6 -2 10 4 10 5 0 13 -4 16 -10z m-99 -22 c5 -7 2 -9 -8 -5 -9 3 -21 0 -27 -6
-8 -8 -11 -8 -11 0 0 10 14 20 32 22 4 1 10 -4 14 -11z m-1017 -53 c-13 -19
-29 -37 -36 -39 -6 -3 2 15 19 39 18 25 34 43 36 40 3 -2 -6 -20 -19 -40z
m1099 -10 c-3 -3 -13 7 -23 22 l-17 28 23 -22 c12 -12 20 -25 17 -28z m-353
15 c10 -11 14 -20 9 -20 -5 0 -15 9 -22 20 -7 11 -11 20 -9 20 2 0 12 -9 22
-20z m-310 -9 c-3 -11 -8 -29 -10 -41 -2 -12 -12 -28 -22 -36 -11 -8 -13 -13
-5 -14 6 0 12 -5 12 -11 0 -6 -6 -9 -12 -6 -7 2 -25 -10 -40 -27 -15 -17 -28
-26 -28 -19 0 6 5 15 11 19 6 3 19 23 28 43 21 45 61 111 68 111 2 0 2 -9 -2
-19z m210 9 c3 -5 1 -10 -4 -10 -6 0 -11 5 -11 10 0 6 2 10 4 10 3 0 8 -4 11
-10z m-865 -38 c0 -15 -2 -15 -10 -2 -13 20 -13 33 0 25 6 -3 10 -14 10 -23z
m717 -9 c-3 -10 -5 -4 -5 12 0 17 2 24 5 18 2 -7 2 -21 0 -30z m218 0 c11 -6
17 -14 14 -18 -11 -10 -56 5 -56 20 0 15 13 14 42 -2z m-194 -30 c-12 -20 -14
-14 -5 12 4 9 9 14 11 11 3 -2 0 -13 -6 -23z m-174 -11 c-18 -42 -74 -105 -86
-98 -16 10 -14 39 2 33 10 -4 12 4 10 27 -2 17 0 25 3 19 9 -20 32 -15 45 10
10 18 27 36 36 37 1 0 -3 -13 -10 -28z m220 -14 c-3 -7 -5 -2 -5 12 0 14 2 19
5 13 2 -7 2 -19 0 -25z m-140 -70 c-3 -8 -6 -5 -6 6 -1 11 2 17 5 13 3 -3 4
-12 1 -19z m-182 -48 c3 -5 1 -10 -4 -10 -6 0 -11 5 -11 10 0 6 2 10 4 10 3 0
8 -4 11 -10z m223 -26 c-4 -3 -12 5 -18 18 -12 22 -12 22 6 6 10 -10 15 -20
12 -24z m-248 -34 c-16 -40 -23 -33 -9 9 6 18 14 30 17 27 2 -3 -1 -19 -8 -36z
m87 -2 c-3 -8 -6 -5 -6 6 -1 11 2 17 5 13 3 -3 4 -12 1 -19z m10 -50 c-3 -8
-6 -5 -6 6 -1 11 2 17 5 13 3 -3 4 -12 1 -19z m-126 -75 c-9 -15 -10 -13 -11
12 0 17 4 41 8 55 6 23 7 21 10 -12 2 -21 -1 -46 -7 -55z m69 42 c-7 -9 -15
-13 -18 -10 -3 2 1 11 8 20 7 9 15 13 18 10 3 -2 -1 -11 -8 -20z m-30 -28 c0
-5 -4 -5 -10 -2 -5 3 -10 14 -10 23 0 15 2 15 10 2 5 -8 10 -19 10 -23z m-925
-153 c-36 -28 -61 -36 -30 -10 17 14 35 26 40 26 6 -1 1 -8 -10 -16z"/>
<path d="M6671 4374 c0 -11 3 -14 6 -6 3 7 2 16 -1 19 -3 4 -6 -2 -5 -13z"/>
<path d="M6750 4329 c0 -5 5 -7 10 -4 6 3 10 8 10 11 0 2 -4 4 -10 4 -5 0 -10
-5 -10 -11z"/>
<path d="M6741 4244 c0 -11 3 -14 6 -6 3 7 2 16 -1 19 -3 4 -6 -2 -5 -13z"/>
<path d="M6751 4204 c0 -11 3 -14 6 -6 3 7 2 16 -1 19 -3 4 -6 -2 -5 -13z"/>
<path d="M6751 4144 c0 -11 3 -14 6 -6 3 7 2 16 -1 19 -3 4 -6 -2 -5 -13z"/>
<path d="M6772 4030 c0 -14 2 -19 5 -12 2 6 2 18 0 25 -3 6 -5 1 -5 -13z"/>
<path d="M6761 3983 c0 -5 4 -17 9 -28 8 -17 8 -16 7 8 -1 15 -5 27 -9 27 -4
0 -8 -3 -7 -7z"/>
<path d="M6551 3844 c0 -11 3 -14 6 -6 3 7 2 16 -1 19 -3 4 -6 -2 -5 -13z"/>
<path d="M6512 3583 c-1 -84 1 -153 6 -153 4 0 6 46 4 102 -4 187 -8 205 -10
51z"/>
<path d="M6552 3625 c0 -16 2 -22 5 -12 2 9 2 23 0 30 -3 6 -5 -1 -5 -18z"/>
<path d="M6691 3534 c0 -11 3 -14 6 -6 3 7 2 16 -1 19 -3 4 -6 -2 -5 -13z"/>
<path d="M6552 3465 c0 -16 2 -22 5 -12 2 9 2 23 0 30 -3 6 -5 -1 -5 -18z"/>
<path d="M6680 3459 c0 -5 5 -7 10 -4 6 3 10 8 10 11 0 2 -4 4 -10 4 -5 0 -10
-5 -10 -11z"/>
<path d="M6500 3378 c0 -36 4 -35 14 5 4 16 2 27 -4 27 -5 0 -10 -14 -10 -32z"/>
<path d="M6585 3390 c-4 -12 -5 -24 -2 -27 3 -2 8 5 12 17 4 12 5 24 2 27 -3
2 -8 -5 -12 -17z"/>
<path d="M6521 3364 c0 -11 3 -14 6 -6 3 7 2 16 -1 19 -3 4 -6 -2 -5 -13z"/>
<path d="M6680 1770 c0 -5 5 -10 10 -10 6 0 10 5 10 10 0 6 -4 10 -10 10 -5 0
-10 -4 -10 -10z"/>
<path d="M6420 1080 c0 -5 5 -10 10 -10 6 0 10 5 10 10 0 6 -4 10 -10 10 -5 0
-10 -4 -10 -10z"/>
<path d="M4262 7405 c-14 -17 -37 -21 -27 -5 3 5 -7 3 -22 -5 -15 -8 -36 -15
-45 -15 -9 0 -20 -4 -23 -10 -8 -13 31 -13 57 1 15 8 22 8 28 0 10 -18 56 6
57 30 2 22 -7 24 -25 4z"/>
<path d="M4955 7335 c11 -8 30 -24 42 -37 25 -24 44 -18 23 7 -14 17 -63 45
-77 45 -4 0 1 -7 12 -15z"/>
<path d="M4055 7245 c-227 -103 -272 -127 -196 -105 19 5 41 5 54 0 l22 -9
-22 0 c-13 -1 -23 -6 -23 -12 0 -6 7 -8 16 -5 9 3 22 6 29 6 8 0 13 9 12 20
-1 13 -8 20 -22 20 -17 0 -15 3 10 19 17 10 46 22 65 25 33 7 34 6 16 -9 -26
-20 -8 -19 33 1 32 16 57 49 43 58 -4 2 -21 -1 -37 -9z"/>
<path d="M3810 7090 c-8 -5 -11 -12 -7 -16 4 -4 15 0 24 9 18 18 8 23 -17 7z"/>
<path d="M5608 6903 c7 -3 16 -2 19 1 4 3 -2 6 -13 5 -11 0 -14 -3 -6 -6z"/>
<path d="M3509 6853 c-13 -16 -12 -17 4 -4 16 13 21 21 13 21 -2 0 -10 -8 -17
-17z"/>
<path d="M3266 6645 c-9 -26 -7 -32 5 -12 6 10 9 21 6 23 -2 3 -7 -2 -11 -11z"/>
<path d="M3165 6629 c-4 -6 -5 -12 -2 -15 2 -3 7 2 10 11 7 17 1 20 -8 4z"/>
<path d="M3211 6601 c-13 -10 -22 -23 -20 -30 3 -7 16 0 34 19 32 33 24 40
-14 11z"/>
<path d="M3121 6533 c-9 -15 -12 -15 -20 -4 -6 10 -10 10 -16 1 -4 -6 -2 -17
4 -23 8 -8 18 -4 38 16 15 15 22 27 16 27 -7 0 -17 -8 -22 -17z"/>
<path d="M3008 6512 c-3 -9 -19 -25 -37 -35 -27 -16 -31 -16 -31 -3 0 9 7 16
15 16 8 0 15 5 15 11 0 6 -7 8 -16 5 -9 -3 -24 -6 -35 -6 -10 0 -29 -11 -41
-25 -12 -14 -27 -25 -33 -25 -19 0 -12 -70 9 -85 17 -13 17 -15 -1 -39 -10
-14 -23 -26 -28 -26 -6 0 -27 -17 -46 -37 -34 -38 -73 -54 -62 -27 3 8 9 12
13 9 7 -5 20 22 25 55 2 8 12 37 24 64 12 27 20 50 18 52 -2 2 -27 -23 -56
-56 -29 -33 -57 -60 -63 -60 -6 0 -3 9 6 19 10 11 15 24 12 29 -3 5 1 15 9 22
8 7 13 16 10 20 -4 7 48 50 61 50 3 0 0 -8 -7 -17 -13 -16 -12 -17 4 -4 11 9
14 18 8 24 -5 5 -7 17 -4 26 4 13 2 13 -7 -1 -6 -10 -18 -18 -27 -18 -8 0 -29
-11 -45 -25 -41 -34 -49 -23 -12 16 24 26 25 29 7 20 -12 -6 -33 -11 -46 -11
-40 0 -85 -20 -90 -41 -3 -11 -9 -19 -14 -18 -4 1 -10 0 -13 -1 -3 -2 -28 -4
-56 -5 -36 -1 -75 -13 -130 -40 -135 -65 -310 -187 -297 -208 3 -6 1 -7 -5 -3
-26 16 -251 -306 -238 -341 3 -6 0 -13 -5 -15 -5 -2 -21 -35 -35 -73 -29 -80
-56 -208 -42 -199 5 3 17 -1 26 -9 27 -24 100 -39 151 -32 34 5 57 16 84 41
20 20 37 29 37 22 0 -10 3 -9 9 2 6 8 7 18 4 24 -3 5 -1 6 5 2 19 -11 26 16 7
30 -15 11 -23 11 -46 -2 -16 -8 -29 -12 -29 -10 0 3 14 13 32 22 27 14 29 18
15 26 -9 5 -17 13 -17 19 0 5 10 0 22 -11 15 -14 30 -19 45 -15 19 4 97 78
126 119 6 8 10 8 14 -2 9 -24 33 8 28 37 -3 14 -3 21 0 14 7 -13 105 73 105
93 0 7 9 19 19 26 11 8 23 26 26 41 4 14 14 32 23 39 14 10 15 10 5 -2 -15
-16 -17 -30 -5 -30 11 0 42 65 42 87 0 9 3 13 6 10 4 -3 18 3 32 13 14 11 27
18 29 16 8 -7 -21 -45 -42 -55 -15 -7 -16 -10 -4 -10 20 -1 52 33 54 57 0 9 3
22 7 27 3 6 8 24 12 40 6 29 6 29 -34 -15 -22 -24 -40 -49 -40 -54 0 -5 -3 -7
-6 -3 -3 3 3 19 15 35 12 17 21 35 21 42 0 6 4 9 8 6 5 -3 19 17 32 44 13 27
26 47 30 45 4 -2 23 4 44 14 20 10 36 17 36 15 0 -2 -11 -20 -25 -40 -26 -38
-32 -64 -15 -64 19 0 10 -18 -12 -25 -20 -6 -20 -8 -5 -12 26 -7 20 -25 -22
-58 -21 -16 -42 -39 -47 -50 -6 -11 -15 -19 -21 -18 -5 1 -21 -9 -33 -22 -27
-29 -17 -34 14 -7 11 9 -5 -12 -35 -48 -88 -103 -209 -271 -216 -299 -3 -14
-11 -33 -17 -41 -12 -16 -31 -49 -53 -90 -7 -14 -13 -19 -13 -12 0 7 -5 10
-10 7 -6 -4 -8 -10 -5 -15 6 -9 -52 -137 -66 -146 -13 -8 -11 10 3 24 9 9 9
15 1 23 -14 14 -63 -87 -63 -132 0 -18 -3 -29 -7 -26 -10 10 -33 -42 -33 -74
0 -16 -4 -29 -9 -29 -5 0 -8 -12 -8 -27 0 -14 -7 -31 -14 -37 -8 -6 -13 -23
-11 -38 2 -17 -2 -28 -8 -28 -8 0 -10 9 -6 25 4 14 2 25 -4 25 -5 0 -10 -15
-10 -34 0 -18 -6 -39 -14 -45 -7 -6 -16 -25 -20 -41 -3 -19 -12 -30 -23 -31
-10 0 -13 -3 -7 -5 9 -4 7 -25 -7 -77 -12 -46 -15 -75 -9 -81 7 -7 10 -4 10 7
0 9 5 17 11 17 7 0 8 -35 5 -104 -5 -87 -3 -107 10 -120 22 -23 25 -20 23 22
-2 56 10 135 22 147 8 7 9 -4 4 -37 -5 -31 -4 -48 3 -48 6 0 13 10 15 23 3 12
3 -15 1 -60 -2 -53 0 -83 7 -83 6 0 8 -9 4 -19 -3 -11 0 -23 6 -27 10 -6 9 -9
-3 -13 -14 -5 -13 -10 3 -41 11 -19 19 -29 19 -22 0 7 4 11 9 7 18 -10 61 18
67 44 14 74 59 230 75 262 26 52 61 72 112 64 23 -4 52 -13 64 -21 19 -12 22
-12 26 4 4 14 6 13 12 -6 5 -14 13 -21 21 -18 8 3 14 -2 15 -12 2 -46 19 51
19 108 -1 84 10 191 21 210 6 10 7 6 3 -12 -4 -18 -2 -28 5 -28 15 0 14 47 -3
103 -8 25 -11 45 -7 45 12 -4 49 22 56 39 15 38 33 127 28 140 -3 8 -1 31 5
51 6 20 21 82 33 137 11 55 23 107 26 115 4 8 5 18 5 23 -1 4 7 7 18 7 14 0
21 9 26 35 3 19 12 39 20 46 8 6 14 16 14 21 0 5 13 28 29 51 28 40 48 87 38
87 -3 0 -18 -20 -34 -45 -15 -25 -32 -45 -38 -45 -5 0 -4 5 3 12 7 7 12 19 12
27 0 9 -9 0 -21 -19 -11 -19 -26 -39 -33 -45 -45 -38 -111 -191 -101 -236 4
-15 2 -30 -3 -33 -6 -3 -9 -14 -7 -24 1 -9 0 -11 -2 -4 -3 6 -10 12 -16 12 -8
0 -7 4 1 12 7 7 12 23 12 38 0 20 -2 22 -10 10 -17 -27 -11 0 10 40 11 22 20
44 20 50 0 6 14 39 30 73 17 34 24 55 18 46 -7 -9 -19 -14 -25 -12 -14 5 -37
-43 -27 -58 3 -5 -1 -9 -9 -9 -8 0 -20 -15 -27 -32 -25 -66 -41 -98 -49 -98
-13 0 -31 -58 -27 -84 2 -11 1 -15 -1 -8 -7 19 -22 4 -16 -17 3 -10 0 -29 -7
-40 -6 -12 -7 -27 -3 -34 11 -17 12 -68 2 -61 -5 3 -9 12 -9 20 0 8 -4 14 -10
14 -5 0 -10 10 -10 23 0 18 -2 19 -10 7 -13 -20 -13 0 0 49 5 20 12 48 15 63
3 16 11 27 18 25 7 -1 12 9 12 24 0 15 8 36 18 46 9 11 17 30 17 44 0 25 20
65 20 42 0 -7 5 -13 10 -13 6 0 10 6 9 13 -2 12 10 65 19 81 2 4 8 2 13 -5 5
-9 6 0 3 21 -4 24 0 42 10 55 15 19 16 19 6 -8 -6 -16 -6 -26 -1 -22 5 3 11 0
14 -7 2 -7 2 -2 0 10 -2 13 0 21 6 18 5 -3 7 2 4 12 -2 10 3 38 12 62 9 25 17
52 18 61 1 10 7 15 15 12 9 -4 10 -9 3 -16 -6 -6 -11 -16 -11 -21 0 -6 5 -4
10 4 9 13 11 13 21 0 9 -13 10 -12 5 3 -4 12 8 38 32 72 35 52 61 72 48 40 -3
-8 0 -15 5 -15 7 0 9 9 6 22 -6 21 38 97 56 98 10 0 47 41 89 98 17 23 37 42
45 42 13 0 17 11 14 43 -1 9 3 17 9 17 7 0 10 -7 6 -15 -8 -22 1 -18 32 15 16
16 31 27 34 25 3 -3 13 10 22 30 9 19 22 35 28 35 5 0 8 7 4 15 -3 8 -1 15 4
15 6 0 10 -5 10 -10 0 -6 14 -1 30 12 31 22 42 70 19 83 -17 11 -24 -4 -12
-25 10 -14 9 -21 -3 -31 -12 -10 -13 -9 -8 5 5 12 2 15 -10 10 -10 -4 -15 -13
-12 -20 3 -8 0 -11 -10 -7 -7 3 -14 1 -14 -4 0 -11 -22 -36 -62 -71 -22 -20
-30 -22 -47 -13 -19 11 -30 34 -13 29 7 -2 97 55 135 85 18 15 23 42 8 51 -5
3 -11 -2 -13 -12z m-83 -62 c3 -5 2 -10 -4 -10 -5 0 -13 5 -16 10 -3 6 -2 10
4 10 5 0 13 -4 16 -10z m-25 -26 c0 -8 -19 -13 -24 -6 -3 5 1 9 9 9 8 0 15 -2
15 -3z m-273 -46 c-3 -8 -6 -5 -6 6 -1 11 2 17 5 13 3 -3 4 -12 1 -19z m-41
-27 c-4 -5 -21 -20 -39 -32 l-32 -22 34 36 c31 33 52 44 37 18z m30 -38 c-11
-11 -17 4 -9 23 7 18 8 18 11 1 2 -10 1 -21 -2 -24z m-106 -18 c0 -8 -4 -15
-10 -15 -5 0 -10 7 -10 15 0 8 5 15 10 15 6 0 10 -7 10 -15z m48 -5 c-7 -10
-14 -18 -15 -16 -6 6 9 36 18 36 5 0 4 -9 -3 -20z m82 -4 c0 -3 -4 -8 -10 -11
-5 -3 -10 -1 -10 4 0 6 5 11 10 11 6 0 10 -2 10 -4z m100 -5 c0 -5 -7 -11 -14
-14 -10 -4 -13 -1 -9 9 6 15 23 19 23 5z m-243 -88 c-3 -10 -5 -2 -5 17 0 19
2 27 5 18 2 -10 2 -26 0 -35z m-47 12 c0 -8 -5 -15 -11 -15 -7 0 -18 -8 -25
-17 -13 -17 -14 -17 -7 2 6 16 30 43 41 45 1 0 2 -7 2 -15z m220 0 c-7 -8 -17
-15 -22 -15 -6 0 -5 7 2 15 7 8 17 15 22 15 6 0 5 -7 -2 -15z m29 -21 c-6 -7
-9 -21 -5 -29 6 -17 -9 -21 -20 -4 -8 14 16 60 28 53 5 -3 4 -12 -3 -20z
m-262 -56 c-3 -7 -5 -2 -5 12 0 14 2 19 5 13 2 -7 2 -19 0 -25z m215 25 c-6
-2 -10 -8 -7 -13 3 -4 -2 -11 -10 -14 -13 -4 -14 -2 -5 14 6 11 16 20 23 19 9
0 9 -2 -1 -6z m-357 -61 c-7 -7 -65 19 -65 29 0 5 16 1 35 -8 19 -9 33 -19 30
-21z m360 -4 c-15 -18 -36 -51 -45 -73 -17 -39 -60 -88 -60 -68 0 5 9 18 20
28 11 10 20 28 20 39 0 21 78 121 87 112 3 -3 -7 -20 -22 -38z m-435 6 c0 -8
-4 -12 -10 -9 -5 3 -10 10 -10 16 0 5 5 9 10 9 6 0 10 -7 10 -16z m125 -14
c-3 -5 -12 -7 -20 -3 -21 7 -19 13 6 13 11 0 18 -4 14 -10z m54 -43 c-5 -20
-14 -39 -19 -42 -5 -3 -2 15 7 40 18 54 27 55 12 2z m-162 -59 c-3 -8 -6 -5
-6 6 -1 11 2 17 5 13 3 -3 4 -12 1 -19z m46 -23 c-3 -9 -8 -14 -10 -11 -3 3
-2 9 2 15 9 16 15 13 8 -4z m226 -11 c-7 -9 -14 -25 -16 -37 -2 -11 -8 -26
-13 -32 -5 -7 -8 -14 -5 -17 3 -2 -2 -5 -10 -5 -17 0 -20 13 -5 22 6 3 10 14
10 24 0 9 9 27 20 39 24 25 39 30 19 6z m-239 -18 c0 -3 -4 -8 -10 -11 -5 -3
-10 -1 -10 4 0 6 5 11 10 11 6 0 10 -2 10 -4z m-195 -16 c3 -5 2 -10 -4 -10
-5 0 -13 5 -16 10 -3 6 -2 10 4 10 5 0 13 -4 16 -10z m130 -30 c-4 -12 -9 -19
-12 -17 -3 3 -2 15 2 27 4 12 9 19 12 17 3 -3 2 -15 -2 -27z m-80 -8 c-3 -3
-11 0 -18 7 -9 10 -8 11 6 5 10 -3 15 -9 12 -12z m309 -47 c-4 -8 -8 -15 -10
-15 -2 0 -4 7 -4 15 0 8 4 15 10 15 5 0 7 -7 4 -15z m-310 -80 c-4 -8 -11 -15
-16 -15 -6 0 -5 6 2 15 7 8 14 15 16 15 2 0 1 -7 -2 -15z m106 5 c0 -5 -4 -10
-10 -10 -5 0 -10 5 -10 10 0 6 5 10 10 10 6 0 10 -4 10 -10z m170 -16 c0 -8
-4 -12 -10 -9 -5 3 -10 10 -10 16 0 5 5 9 10 9 6 0 10 -7 10 -16z m201 -13
c-12 -16 -21 -34 -21 -40 0 -6 -4 -11 -10 -11 -5 0 -7 -6 -4 -14 3 -7 -2 -16
-10 -19 -16 -7 -12 12 16 63 22 42 29 50 39 50 6 0 1 -13 -10 -29z m-271 -21
c0 -5 -5 -10 -11 -10 -5 0 -7 5 -4 10 3 6 8 10 11 10 2 0 4 -4 4 -10z m183
-10 c-5 -19 -23 -39 -23 -25 0 9 20 45 24 45 2 0 2 -9 -1 -20z m-420 -15 c-3
-9 -8 -14 -10 -11 -3 3 -2 9 2 15 9 16 15 13 8 -4z m-346 -107 c-3 -7 -5 -2
-5 12 0 14 2 19 5 13 2 -7 2 -19 0 -25z m771 1 c-6 -16 -12 -28 -14 -26 -5 5
13 57 20 57 3 0 0 -14 -6 -31z m-231 -57 c-3 -12 -5 -10 -6 6 0 13 -5 20 -11
17 -6 -4 -7 1 -3 11 5 15 7 15 15 0 5 -9 7 -24 5 -34z m-27 -18 c0 -9 -22 -47
-41 -73 -19 -23 -19 -23 -19 -2 0 11 6 20 12 19 7 -2 17 12 22 30 6 17 14 32
18 32 4 0 8 -3 8 -6z m162 -66 c-8 -8 -9 -4 -5 13 4 13 8 18 11 10 2 -7 -1
-18 -6 -23z m-158 -3 c-4 -8 -8 -15 -10 -15 -2 0 -4 7 -4 15 0 8 4 15 10 15 5
0 7 -7 4 -15z m191 -111 c-3 -30 -10 -54 -14 -54 -7 0 -6 32 6 100 9 54 16 16
8 -46z m-238 44 c-3 -8 -6 -5 -6 6 -1 11 2 17 5 13 3 -3 4 -12 1 -19z m43 -4
c-8 -8 -14 -38 -14 -65 0 -27 -3 -49 -8 -49 -4 0 -8 5 -8 12 0 22 -13 -2 -16
-29 -1 -16 -6 -42 -9 -60 -6 -27 -4 -31 11 -29 11 2 22 16 27 35 4 18 10 31
12 29 2 -2 -4 -33 -13 -68 -11 -41 -18 -57 -20 -42 -5 30 -22 28 -22 -3 0 -14
-2 -25 -4 -25 -2 0 -13 -3 -23 -6 -15 -5 -15 -4 -3 5 11 7 15 29 15 73 0 35 4
69 8 76 5 6 6 16 3 21 -8 13 14 72 25 65 5 -3 9 2 9 11 0 21 30 78 37 71 3 -3
0 -13 -7 -22z m150 -18 c-10 -46 -30 -71 -30 -39 0 19 31 85 37 80 1 -2 -2
-20 -7 -41z m-110 -31 c0 -8 -4 -15 -10 -15 -5 0 -7 7 -4 15 4 8 8 15 10 15 2
0 4 -7 4 -15z m-117 -10 c-3 -9 -8 -14 -10 -11 -3 3 -2 9 2 15 9 16 15 13 8
-4z m141 -52 c-1 -27 -1 -38 2 -25 7 30 24 28 24 -3 0 -16 -6 -25 -15 -25 -11
0 -14 -7 -9 -25 4 -14 2 -25 -4 -25 -11 0 -20 99 -14 137 7 41 20 14 16 -34z
m147 10 c-8 -15 -10 -15 -11 -2 0 17 10 32 18 25 2 -3 -1 -13 -7 -23z m-83
-38 c0 -30 -5 -55 -10 -55 -4 0 -6 -12 -3 -27 6 -27 6 -27 -9 -9 -18 23 -21
56 -5 56 6 0 9 14 8 33 -3 28 5 57 16 57 2 0 3 -25 3 -55z m-116 13 c-7 -7
-12 -8 -12 -2 0 14 12 26 19 19 2 -3 -1 -11 -7 -17z m-42 -35 c-11 -17 -11
-17 -6 0 3 10 6 24 7 30 0 9 2 9 5 0 3 -7 0 -20 -6 -30z m220 -3 c0 -26 -10
-50 -21 -50 -6 0 -8 12 -5 28 2 15 5 33 5 40 1 20 21 3 21 -18z m-373 -2 c-3
-8 -6 -5 -6 6 -1 11 2 17 5 13 3 -3 4 -12 1 -19z m-55 -70 c-7 -7 -12 -8 -12
-2 0 14 12 26 19 19 2 -3 -1 -11 -7 -17z m324 -23 c17 -13 17 -14 2 -15 -11 0
-15 -5 -12 -15 4 -8 1 -15 -5 -15 -6 0 -11 6 -11 14 0 8 -3 21 -6 30 -8 20 6
20 32 1z m31 -97 c-3 -8 -6 -5 -6 6 -1 11 2 17 5 13 3 -3 4 -12 1 -19z m-34
-13 c-7 -21 -13 -19 -13 6 0 11 4 18 10 14 5 -3 7 -12 3 -20z m16 -73 c0 -24
-1 -25 -9 -7 -12 28 -12 47 0 40 6 -3 10 -18 9 -33z m-512 -154 c-3 -8 -6 -5
-6 6 -1 11 2 17 5 13 3 -3 4 -12 1 -19z m200 -10 c-3 -8 -6 -5 -6 6 -1 11 2
17 5 13 3 -3 4 -12 1 -19z m-47 -91 c0 -5 -4 -6 -9 -2 -12 7 -20 -19 -30 -97
-5 -35 -9 -54 -10 -43 -1 11 -4 34 -6 50 -5 36 35 132 47 113 4 -7 8 -17 8
-21z"/>
<path d="M2502 6413 c-6 -2 -10 -9 -6 -14 8 -14 21 -11 28 6 6 15 1 17 -22 8z"/>
<path d="M2924 6393 c-13 -14 -22 -28 -20 -31 5 -4 20 9 45 41 21 27 3 20 -25
-10z"/>
<path d="M2792 6352 c-17 -57 -14 -63 9 -18 13 23 17 42 12 47 -6 6 -14 -6
-21 -29z"/>
<path d="M2825 6349 c-10 -15 3 -25 16 -12 7 7 7 13 1 17 -6 3 -14 1 -17 -5z"/>
<path d="M2989 6313 c-13 -16 -12 -17 4 -4 9 7 17 15 17 17 0 8 -8 3 -21 -13z"/>
<path d="M2890 6235 c-8 -9 -8 -15 -2 -15 12 0 26 19 19 26 -2 2 -10 -2 -17
-11z"/>
<path d="M2567 6200 c-3 -11 -1 -20 4 -20 4 0 13 9 19 20 8 16 8 20 -3 20 -8
0 -17 -9 -20 -20z"/>
<path d="M2806 6145 c-16 -19 -34 -44 -41 -57 -6 -13 -16 -22 -22 -21 -6 1
-14 -4 -17 -12 -4 -10 1 -15 14 -15 11 0 20 4 20 10 0 11 21 38 79 103 17 19
20 27 10 27 -8 0 -27 -16 -43 -35z"/>
<path d="M2705 6019 c-11 -17 1 -21 15 -4 8 9 8 15 2 15 -6 0 -14 -5 -17 -11z"/>
<path d="M2677 5987 c-3 -8 1 -14 9 -14 16 0 19 13 5 21 -5 3 -11 0 -14 -7z"/>
<path d="M2642 5940 c-7 -11 -10 -20 -6 -20 7 0 34 27 34 34 0 13 -16 5 -28
-14z"/>
<path d="M2715 5866 c-3 -9 -7 -23 -10 -31 -2 -8 -2 -15 1 -15 7 0 25 52 20
58 -3 3 -8 -3 -11 -12z"/>
<path d="M2740 5838 c-6 -24 -17 -58 -25 -76 -20 -43 -18 -65 1 -28 11 19 19
25 24 17 4 -8 11 -2 20 19 7 17 10 33 6 37 -3 3 -6 -1 -6 -10 0 -9 -5 -19 -11
-23 -14 -8 -3 64 12 83 7 7 6 13 0 17 -6 4 -15 -12 -21 -36z"/>
<path d="M430 5860 c8 -5 20 -10 25 -10 6 0 3 5 -5 10 -8 5 -19 10 -25 10 -5
0 -3 -5 5 -10z"/>
<path d="M2571 5844 c-17 -37 -8 -39 13 -4 9 17 13 30 8 30 -5 0 -14 -12 -21
-26z"/>
<path d="M2298 5778 c-10 -12 -16 -24 -13 -26 6 -6 45 28 45 40 0 14 -14 8
-32 -14z"/>
<path d="M2770 5751 c0 -5 -3 -18 -6 -28 -5 -16 -4 -16 10 1 18 23 20 36 6 36
-5 0 -10 -4 -10 -9z"/>
<path d="M2219 5698 c-26 -29 -90 -141 -89 -157 1 -11 40 41 40 53 0 7 14 22
30 34 17 13 30 28 30 35 -1 7 -6 5 -14 -5 -18 -24 -29 -23 -16 2 6 11 18 20
26 20 8 0 12 5 9 10 -3 6 -2 10 3 10 6 0 12 7 16 15 9 23 -3 18 -35 -17z"/>
<path d="M2716 5701 c-4 -7 -5 -15 -2 -18 9 -9 19 4 14 18 -4 11 -6 11 -12 0z"/>
<path d="M120 5677 c0 -9 11 -22 24 -29 13 -7 41 -23 63 -35 22 -12 45 -29 53
-37 14 -17 78 -51 85 -45 2 2 -39 33 -91 69 -52 36 -104 71 -114 79 -17 12
-20 11 -20 -2z"/>
<path d="M2150 5670 c-14 -11 -19 -20 -12 -20 8 0 10 -5 6 -12 -4 -7 -5 -11
-1 -8 3 3 5 8 4 11 -1 4 7 16 17 28 24 26 19 27 -14 1z"/>
<path d="M54 5634 c-10 -8 -14 -13 -7 -10 6 4 28 -3 47 -13 42 -24 62 -8 26
21 -27 22 -40 23 -66 2z"/>
<path d="M2115 5610 c-3 -5 -2 -10 4 -10 5 0 13 5 16 10 3 6 2 10 -4 10 -5 0
-13 -4 -16 -10z"/>
<path d="M150 5590 c0 -5 5 -10 10 -10 6 0 10 5 10 10 0 6 -4 10 -10 10 -5 0
-10 -4 -10 -10z"/>
<path d="M2625 5580 c-4 -12 -5 -24 -2 -27 3 -2 8 5 12 17 4 12 5 24 2 27 -3
2 -8 -5 -12 -17z"/>
<path d="M2562 5547 c-17 -47 -14 -59 4 -18 8 19 13 39 12 43 -2 5 -9 -6 -16
-25z"/>
<path d="M180 5556 c0 -9 6 -16 14 -16 7 0 19 -7 26 -15 7 -9 15 -13 18 -11 3
3 18 -6 34 -19 16 -14 36 -25 44 -25 8 0 14 -4 14 -10 0 -5 7 -10 15 -10 8 0
15 -5 15 -10 0 -6 12 -16 28 -22 15 -7 37 -21 49 -32 13 -11 26 -17 29 -13 8
7 -20 37 -35 37 -6 0 -11 5 -11 11 0 5 -13 15 -30 20 -16 6 -30 15 -30 20 0 5
-5 9 -11 9 -6 0 -20 11 -31 25 -11 14 -24 23 -29 19 -5 -3 -12 2 -15 10 -3 9
-14 16 -24 16 -10 0 -20 4 -22 9 -1 4 -13 12 -25 15 -17 6 -23 3 -23 -8z"/>
<path d="M2088 5548 c2 -10 0 -18 -6 -18 -24 0 -71 -88 -83 -154 -6 -37 -9
-69 -6 -72 4 -5 28 41 67 131 8 17 12 36 11 43 -1 6 3 12 9 12 5 0 10 9 10 19
0 11 5 23 10 26 15 9 12 32 -4 32 -8 0 -11 -8 -8 -19z"/>
<path d="M3435 5540 c3 -5 8 -10 11 -10 2 0 4 5 4 10 0 6 -5 10 -11 10 -5 0
-7 -4 -4 -10z"/>
<path d="M375 5500 c10 -11 22 -20 27 -20 14 0 128 -88 128 -98 0 -4 -10 -13
-21 -21 -20 -12 -21 -11 -15 4 5 15 4 16 -9 5 -9 -7 -14 -14 -13 -15 35 -32
206 -149 231 -158 9 -3 17 -13 17 -22 0 -8 7 -15 15 -15 8 0 15 -5 15 -10 0
-6 11 -15 25 -20 14 -5 25 -13 25 -18 0 -5 18 -17 39 -28 22 -10 45 -29 50
-41 6 -13 16 -23 22 -23 6 0 20 -12 31 -26 12 -14 29 -29 38 -32 16 -6 120
-98 120 -106 0 -7 58 -66 64 -66 3 0 6 7 6 15 0 8 7 15 15 15 21 0 19 -28 -4
-41 -17 -11 -17 -14 -2 -43 9 -17 22 -36 30 -42 8 -6 11 -16 7 -23 -5 -8 -11
-8 -21 1 -7 7 -30 27 -51 43 -21 17 -59 49 -85 73 -25 23 -49 42 -53 42 -19 0
2 -30 67 -94 41 -39 80 -83 88 -96 23 -42 10 -331 -16 -330 -6 0 -8 43 -6 110
1 61 -1 110 -6 110 -5 0 -14 -30 -21 -67 -7 -37 -19 -80 -27 -97 -8 -17 -23
-60 -35 -96 -12 -36 -28 -79 -36 -97 -7 -17 -14 -41 -14 -52 0 -12 -5 -29 -10
-39 -9 -15 -158 -573 -209 -782 -28 -115 -89 -399 -105 -485 -7 -38 -25 -124
-38 -190 -23 -105 -53 -260 -63 -320 -15 -86 -57 -350 -70 -440 -14 -97 -24
-124 -47 -125 -3 0 -30 20 -59 45 -30 25 -59 43 -67 40 -7 -2 -11 -1 -8 4 6 9
-44 57 -107 104 -20 15 -37 24 -37 18 0 -5 16 -19 35 -31 19 -12 35 -26 35
-31 0 -6 -4 -7 -10 -4 -5 3 -10 -1 -10 -9 0 -16 20 -18 31 -3 3 4 14 -2 25
-14 17 -21 18 -22 1 -16 -13 5 -16 3 -11 -5 18 -28 50 -61 69 -68 19 -8 19 -9
-2 -9 -17 -1 -21 -5 -16 -18 5 -15 3 -16 -8 -6 -7 7 -23 13 -35 13 -13 0 -26
5 -29 10 -4 6 -11 8 -16 5 -5 -4 -9 4 -9 17 0 15 -3 19 -8 10 -6 -9 -12 -5
-22 13 -9 16 -19 24 -28 20 -12 -4 -13 -3 -2 10 10 12 10 15 -4 15 -9 0 -16 5
-16 10 0 6 -7 10 -15 10 -18 0 -20 20 -2 21 6 0 -4 6 -23 13 -23 9 -34 19 -32
30 2 10 -4 16 -17 16 -11 0 -22 9 -26 20 -10 31 -22 23 -27 -18 -3 -20 -5
-151 -6 -290 -1 -247 5 -301 31 -285 5 3 6 -4 3 -15 -5 -14 -1 -27 11 -39 10
-10 18 -24 19 -30 2 -30 5 -34 14 -28 6 3 10 -2 10 -12 0 -29 36 -119 61 -155
41 -57 130 -253 117 -257 -15 -5 -154 143 -208 221 -50 71 -60 78 -60 38 0
-30 27 -63 65 -80 10 -5 87 -87 150 -162 17 -20 41 -56 54 -82 13 -25 43 -62
67 -82 24 -19 44 -41 44 -47 0 -7 18 -48 40 -92 22 -44 40 -83 40 -88 0 -14
-55 21 -112 72 -31 28 -82 88 -114 133 -31 45 -75 102 -98 126 -38 41 -116
102 -131 102 -7 0 -5 -828 2 -873 l5 -27 1290 0 1291 0 -7 62 c-7 74 -19 156
-41 288 -8 52 -20 127 -25 165 -6 39 -13 85 -16 103 -6 30 -5 33 18 28 21 -3
24 0 23 25 0 15 -4 31 -8 35 -4 4 -7 16 -7 26 0 10 -22 60 -49 112 -58 109
-70 165 -66 301 2 55 7 318 10 584 3 266 8 488 11 492 6 10 -16 52 -63 121
-38 55 -75 143 -93 219 -7 30 -18 68 -24 84 -29 77 -1 460 48 662 26 104 29
138 14 126 -7 -6 -26 -13 -43 -15 -27 -3 -33 3 -61 50 -28 46 -31 56 -21 82
12 32 6 46 -15 36 -49 -25 -62 -36 -45 -36 9 0 17 -7 17 -15 0 -8 -8 -15 -17
-15 -13 -1 -9 -5 10 -16 23 -12 27 -20 22 -37 -9 -30 -10 -96 -1 -131 7 -28 6
-28 -38 15 -45 43 -46 45 -48 112 -1 43 -5 64 -11 58 -14 -14 -37 13 -37 44 0
24 3 26 31 21 20 -3 29 -1 26 7 -2 7 -9 12 -15 12 -6 0 -17 6 -24 13 -16 17
-15 236 2 400 10 90 10 133 0 205 -7 51 -12 102 -12 115 0 12 -4 22 -9 22 -5
0 -9 -4 -9 -10 0 -5 -7 -10 -16 -10 -8 0 -12 5 -8 11 4 8 0 8 -15 0 -11 -7
-21 -17 -20 -24 0 -9 2 -9 6 1 2 6 9 12 15 12 5 0 -2 -14 -16 -30 -19 -23 -24
-38 -20 -59 5 -22 0 -32 -20 -48 -14 -12 -26 -25 -26 -31 0 -6 -3 -12 -7 -14
-17 -7 -64 -79 -58 -88 3 -6 1 -10 -5 -10 -8 0 -9 -7 -5 -17 14 -32 5 -87 -15
-105 -24 -19 -25 -28 -5 -28 8 0 15 -4 15 -10 0 -5 -6 -10 -14 -10 -8 0 -13
-8 -11 -17 2 -10 4 -21 4 -25 1 -5 7 -8 15 -8 8 0 18 -5 22 -12 4 -6 3 -8 -3
-5 -18 11 -64 -16 -59 -35 2 -11 -6 -20 -25 -28 -18 -8 -29 -20 -30 -34 -1
-17 -2 -17 -6 -3 -2 9 -8 17 -13 17 -15 0 -27 -25 -21 -44 9 -23 37 -30 45
-10 3 8 16 14 28 13 l23 0 -22 -9 c-15 -6 -21 -15 -17 -25 3 -8 2 -15 -3 -15
-5 0 -19 -9 -31 -20 -12 -12 -22 -16 -22 -11 0 6 -7 8 -15 5 -8 -4 -12 -11 -8
-17 4 -7 0 -8 -11 -4 -10 4 -20 7 -22 7 -3 0 -2 5 2 12 5 7 2 9 -8 6 -26 -10
-62 52 -39 67 6 3 8 12 4 20 -3 10 1 15 13 15 18 1 18 1 -1 16 -18 13 -21 13
-31 -1 -15 -20 -22 -10 -16 20 3 17 15 28 38 37 35 12 46 28 20 28 -8 0 -27
-5 -43 -12 -15 -6 -32 -10 -37 -9 -12 3 -26 -19 -25 -39 0 -10 3 -8 9 5 7 17
9 17 9 3 1 -10 5 -18 10 -18 5 0 7 -9 4 -20 -4 -15 0 -20 16 -20 11 0 21 -4
21 -10 0 -5 -4 -10 -10 -10 -5 0 -10 -8 -10 -17 -1 -16 -2 -16 -15 1 -10 13
-15 15 -15 6 0 -9 -5 -7 -15 6 -22 29 -18 7 7 -37 12 -22 29 -39 37 -39 13 0
13 -2 3 -9 -11 -7 -11 -9 2 -14 8 -3 17 -1 19 6 3 8 11 4 22 -10 9 -13 22 -23
30 -23 28 0 34 -32 14 -72 -21 -40 -24 -73 -10 -83 6 -3 15 3 20 14 10 18 59
41 88 41 9 0 13 -10 11 -31 -3 -38 -11 -43 -40 -28 -22 12 -22 11 -7 -12 25
-39 30 -59 13 -52 -9 3 -14 -1 -14 -12 0 -9 4 -13 10 -10 5 3 10 -1 10 -9 0
-35 -65 -4 -81 38 -10 26 -13 28 -16 12 -5 -20 14 -92 30 -114 6 -7 7 -15 4
-18 -9 -9 -27 5 -27 22 0 8 -7 14 -15 14 -12 0 -14 -20 -12 -125 l2 -125 44
-42 c24 -23 47 -53 52 -66 7 -19 12 -22 23 -13 12 10 16 6 21 -19 4 -17 9 -29
12 -26 6 5 33 -18 33 -28 0 -3 -21 -6 -46 -6 -41 0 -46 -2 -41 -20 3 -11 1
-20 -4 -20 -5 0 -9 -4 -9 -10 0 -5 7 -10 16 -10 13 0 14 -3 5 -13 -6 -8 -7
-18 -3 -23 5 -5 15 -29 22 -54 16 -55 34 -77 81 -100 19 -10 42 -26 49 -35 12
-15 11 -19 -10 -36 -14 -10 -20 -19 -13 -19 19 0 4 -27 -18 -33 -29 -8 -23
-36 21 -88 22 -26 40 -56 41 -66 0 -11 3 -13 6 -5 4 10 8 10 19 1 8 -6 14 -16
14 -22 0 -5 10 -18 21 -28 l22 -19 -24 -19 c-13 -11 -20 -20 -15 -21 11 0 -14
-30 -25 -30 -5 0 -9 9 -9 20 0 11 -4 20 -10 20 -12 0 -13 -6 -1 -29 5 -9 11
-50 12 -91 1 -41 5 -79 8 -85 2 -5 6 -23 8 -40 4 -42 24 -77 41 -70 7 3 20 -1
28 -9 9 -10 10 -16 3 -18 -6 -2 5 -20 25 -41 22 -23 30 -37 21 -37 -22 0 -18
-17 5 -23 30 -8 24 -27 -11 -34 -17 -3 -33 -12 -36 -20 -4 -10 -9 -11 -19 -2
-14 11 -54 3 -54 -11 0 -12 131 -17 195 -8 31 5 52 4 56 -3 3 -6 9 -2 12 10 3
13 13 21 25 21 30 0 36 -17 8 -24 -13 -3 -29 -18 -35 -33 -19 -45 -216 -168
-253 -159 -10 2 -18 -2 -18 -9 0 -12 -61 -33 -113 -39 -16 -2 -32 -7 -35 -12
-4 -5 -17 -15 -30 -22 -20 -11 -23 -11 -20 5 3 16 -6 18 -98 18 -56 0 -107 5
-115 11 -20 15 -170 10 -269 -9 -8 -2 -35 -13 -60 -24 -25 -11 -65 -24 -90
-28 -25 -4 -71 -14 -103 -22 -113 -28 -80 -6 53 36 74 24 141 48 148 55 28 27
-299 31 -350 4 -12 -6 -23 -3 -36 9 -9 10 -45 41 -80 68 -38 31 -60 56 -57 65
2 8 18 101 35 205 17 105 61 340 96 523 60 306 64 335 50 351 -20 22 -20 50
-1 58 34 13 42 38 145 498 63 278 118 515 146 620 9 33 19 78 24 100 4 22 17
66 29 98 11 33 21 69 21 80 0 40 3 56 11 51 21 -13 53 194 65 429 6 110 5 132
-11 167 -10 22 -21 40 -25 40 -4 0 -43 36 -86 80 -43 44 -82 80 -87 80 -5 0
-4 -7 3 -15 18 -22 -4 -18 -24 4 -13 14 -14 20 -5 23 9 3 5 12 -11 28 -23 23
-23 23 -18 2 4 -12 4 -22 1 -22 -11 0 -93 62 -93 70 0 6 -4 10 -9 10 -10 0
-111 96 -111 105 0 4 14 -3 30 -15 35 -25 40 -12 8 19 -57 52 -139 113 -145
108 -8 -8 16 -37 31 -37 11 -1 74 -60 63 -60 -14 0 -86 42 -102 60 -10 11 -40
34 -66 51 -27 17 -49 36 -49 43 0 6 -5 4 -10 -4 -5 -8 -10 -10 -10 -5 0 6 5
17 10 25 9 13 13 12 29 -7 11 -13 23 -23 29 -23 5 0 17 -9 27 -20 19 -21 35
-26 35 -11 0 4 -27 28 -61 52 -34 24 -74 53 -89 64 -137 99 -181 125 -145 85z
m745 -1300 l-11 -25 6 25 c2 14 5 34 6 45 2 19 2 19 6 0 2 -12 -1 -32 -7 -45z
m-3 -64 c2 -19 -2 -38 -7 -41 -6 -4 -7 -11 -4 -17 4 -7 2 -8 -4 -4 -7 4 -12 2
-12 -5 0 -7 -3 -10 -6 -6 -8 7 15 107 24 107 4 0 8 -16 9 -34z m-41 -133 c-11
-11 -19 6 -11 24 8 17 8 17 12 0 3 -10 2 -21 -1 -24z m-27 -133 c0 -9 -4 -8
-9 5 -5 11 -9 27 -9 35 0 9 4 8 9 -5 5 -11 9 -27 9 -35z m-22 -72 c-3 -8 -6
-5 -6 6 -1 11 2 17 5 13 3 -3 4 -12 1 -19z m-20 -10 c-3 -8 -6 -5 -6 6 -1 11
2 17 5 13 3 -3 4 -12 1 -19z m0 -70 c-3 -8 -6 -5 -6 6 -1 11 2 17 5 13 3 -3 4
-12 1 -19z m-30 -130 c-3 -8 -6 -5 -6 6 -1 11 2 17 5 13 3 -3 4 -12 1 -19z
m803 -132 c0 -3 -4 -8 -10 -11 -5 -3 -10 -1 -10 4 0 6 5 11 10 11 6 0 10 -2
10 -4z m-873 -158 c-3 -7 -5 -2 -5 12 0 14 2 19 5 13 2 -7 2 -19 0 -25z m913
13 c12 -23 2 -32 -28 -24 -25 6 -27 14 -10 31 17 17 26 15 38 -7z m-973 -263
c-3 -8 -6 -5 -6 6 -1 11 2 17 5 13 3 -3 4 -12 1 -19z m916 -10 c-4 -7 -13 -29
-20 -48 l-12 -35 6 35 c5 32 19 60 30 60 2 0 1 -6 -4 -12z m-920 -28 c-6 -22
-23 -38 -23 -21 0 17 12 41 20 41 5 0 6 -9 3 -20z m1144 -16 c-3 -3 -12 -4
-19 -1 -8 3 -5 6 6 6 11 1 17 -2 13 -5z m-1181 -163 c-10 -42 -24 -107 -32
-146 -8 -38 -19 -88 -24 -110 -5 -22 -15 -69 -20 -105 -6 -36 -15 -78 -20 -95
-9 -31 -36 -171 -50 -260 -5 -27 -11 -66 -15 -85 -6 -33 -8 -52 -20 -165 -8
-78 -34 -247 -39 -252 -8 -8 -27 8 -21 17 3 5 0 12 -6 15 -7 5 -8 25 -4 59 11
87 75 469 85 506 5 19 26 112 46 207 21 95 41 170 45 167 5 -3 6 10 4 28 -5
27 -4 30 5 13 8 -16 9 -12 6 20 -3 22 1 65 8 95 8 30 15 48 16 40 1 -8 8 10
16 40 8 30 12 66 9 80 -4 19 -3 21 5 10 8 -13 10 -12 11 5 0 13 3 15 6 6 3 -7
-2 -48 -11 -90z m1244 59 c0 -5 -5 -10 -11 -10 -5 0 -7 5 -4 10 3 6 8 10 11
10 2 0 4 -4 4 -10z m150 -74 c0 -2 -25 -16 -56 -31 -41 -20 -59 -24 -67 -16
-16 16 1 28 58 39 65 13 65 13 65 8z m-414 -203 c-7 -7 -26 7 -26 19 0 6 6 6
15 -2 9 -7 13 -15 11 -17z m45 -10 c13 -15 12 -15 -8 -4 -24 12 -29 21 -14 21
5 0 15 -7 22 -17z m80 -183 c5 0 9 -4 9 -9 0 -12 -38 -2 -47 12 -4 7 0 8 11 4
10 -4 22 -7 27 -7z m89 -202 c0 -6 11 -26 25 -44 27 -36 21 -44 -36 -44 -22 0
-29 5 -29 19 0 10 7 24 16 32 9 7 14 22 11 36 -2 12 0 20 4 17 5 -3 9 -10 9
-16z m101 -116 c-7 -2 -18 1 -23 6 -8 8 -4 9 13 5 13 -4 18 -8 10 -11z m-134
-37 c8 -9 13 -19 9 -22 -3 -4 -15 3 -26 15 -23 25 -7 31 17 7z m232 -11 c24
-22 -112 -23 -152 -2 -27 14 -23 14 60 10 48 -2 90 -6 92 -8z m57 4 c-10 -6
-22 -6 -26 -2 -5 5 3 10 18 11 22 1 24 0 8 -9z m-260 -43 c20 -8 40 -13 44
-10 5 3 10 0 12 -7 4 -10 10 -10 33 0 21 10 30 10 35 2 5 -9 21 -9 61 0 30 6
62 11 71 11 10 0 20 4 23 10 11 17 21 9 20 -16 0 -14 -5 -29 -11 -33 -15 -10
-28 -52 -16 -52 6 0 13 6 16 13 4 6 4 2 2 -10 -2 -12 1 -25 8 -28 6 -3 0 -3
-13 -1 -16 3 -25 -1 -28 -14 -3 -10 -15 -21 -27 -24 -12 -3 -31 -14 -43 -26
-31 -28 -51 -25 -102 15 -24 19 -51 35 -60 36 -10 0 -12 2 -3 6 20 8 14 25 -7
18 -21 -6 -36 11 -42 50 -2 10 -12 27 -22 37 -17 18 -15 38 4 38 5 0 26 -7 45
-15z m-56 -111 c0 -8 -4 -12 -10 -9 -5 3 -10 10 -10 16 0 5 5 9 10 9 6 0 10
-7 10 -16z m327 -71 c-9 -9 -20 -13 -24 -9 -4 4 -1 11 7 16 25 16 35 11 17 -7z
m-160 -19 c-3 -3 -12 -4 -19 -1 -8 3 -5 6 6 6 11 1 17 -2 13 -5z m253 -28 c0
-3 -4 -8 -10 -11 -5 -3 -10 -1 -10 4 0 6 5 11 10 11 6 0 10 -2 10 -4z m-1977
-99 c-3 -5 -10 -4 -16 2 -6 6 -20 12 -31 12 -17 1 -18 2 -3 6 9 2 17 14 17 26
0 20 2 19 19 -7 11 -17 17 -34 14 -39z m47 53 c0 -5 -4 -10 -10 -10 -5 0 -10
5 -10 10 0 6 5 10 10 10 6 0 10 -4 10 -10z m75 -40 c3 -5 1 -10 -4 -10 -6 0
-11 5 -11 10 0 6 2 10 4 10 3 0 8 -4 11 -10z m1740 -297 c-2 -10 -4 -19 -5
-20 -3 -4 -7 -20 -9 -34 0 -5 -5 -8 -9 -5 -5 3 -21 -32 -37 -77 -30 -87 -52
-127 -34 -61 10 34 33 94 72 187 13 30 27 37 22 10z m-35 -143 c0 -5 -5 -10
-11 -10 -5 0 -7 5 -4 10 3 6 8 10 11 10 2 0 4 -4 4 -10z m-108 -82 c16 -8 15
-13 -12 -66 -16 -31 -33 -69 -38 -83 -10 -25 -11 -26 -108 -23 -79 1 -107 -2
-139 -17 -22 -10 -96 -38 -165 -63 -69 -24 -151 -54 -183 -66 l-58 -23 -75 74
c-41 40 -73 78 -71 84 2 5 30 13 63 16 148 16 186 29 394 127 58 27 112 52
120 55 21 8 252 -4 272 -15z m-1742 -8 c0 -5 -4 -10 -10 -10 -5 0 -10 5 -10
10 0 6 5 10 10 10 6 0 10 -4 10 -10z m1786 -47 c-11 -11 -19 6 -11 24 8 17 8
17 12 0 3 -10 2 -21 -1 -24z m-4 -33 c-20 -20 -25 -19 -17 2 3 8 12 15 20 15
12 0 11 -4 -3 -17z m-12 -34 c0 -3 -4 -8 -10 -11 -5 -3 -10 -1 -10 4 0 6 5 11
10 11 6 0 10 -2 10 -4z m-12 -61 c-6 -19 -15 -32 -19 -29 -5 2 -6 11 -4 19 3
8 7 22 10 30 2 8 9 15 14 15 5 0 5 -14 -1 -35z m-16 -77 c-7 -7 -12 -8 -12 -2
0 14 12 26 19 19 2 -3 -1 -11 -7 -17z m-4 -36 c-2 -11 3 -26 11 -35 8 -11 9
-17 2 -17 -6 0 -14 -18 -17 -40 -4 -22 -10 -43 -15 -46 -7 -4 -5 50 5 111 2
11 4 26 5 33 0 6 4 12 7 12 3 0 4 -8 2 -18z m-342 -18 c-3 -8 -2 -13 2 -11 13
8 222 -9 231 -19 8 -8 -31 -190 -40 -188 -2 0 -57 4 -122 8 -116 7 -118 7
-167 -21 l-50 -28 -55 55 c-55 56 -67 80 -40 80 27 0 182 79 211 108 35 35 38
37 30 16z m334 -279 c-7 -9 -15 -13 -19 -10 -3 3 1 10 9 15 21 14 24 12 10 -5z
m-169 -86 c18 -9 20 -19 18 -95 l-3 -84 -50 6 c-49 6 -74 23 -114 79 -4 6 -22
28 -39 49 -18 22 -30 43 -27 48 8 12 192 10 215 -3z m-1119 -161 c-15 -15 -26
-4 -18 18 5 13 9 15 18 6 9 -9 9 -15 0 -24z m268 -148 c0 -5 -5 -10 -11 -10
-5 0 -7 5 -4 10 3 6 8 10 11 10 2 0 4 -4 4 -10z"/>
<path d="M757 2706 c-4 -10 -7 -25 -6 -34 0 -11 4 -9 10 7 5 13 8 29 6 35 -2
5 -6 2 -10 -8z"/>
<path d="M711 2474 c0 -11 3 -14 6 -6 3 7 2 16 -1 19 -3 4 -6 -2 -5 -13z"/>
<path d="M2005 1940 c3 -5 14 -10 23 -10 15 0 15 2 2 10 -20 13 -33 13 -25 0z"/>
<path d="M3512 5511 c-8 -4 -25 -7 -40 -5 -37 4 -124 -15 -143 -32 -18 -16
-33 -19 -24 -4 8 13 -1 13 -27 -1 -11 -6 -31 -13 -46 -15 -30 -6 -42 -12 -42
-23 0 -11 28 -8 63 7 16 7 34 12 40 11 17 -1 -64 -37 -86 -38 -25 -1 -88 -66
-76 -78 6 -6 2 -16 -11 -28 -11 -10 -20 -23 -20 -29 0 -6 5 -5 12 2 14 14 32
16 23 3 -3 -5 0 -13 6 -17 6 -3 15 -1 19 6 4 7 21 13 37 14 15 1 26 5 25 10
-6 14 20 26 59 26 19 0 40 5 46 11 17 17 83 17 140 -1 28 -9 65 -15 81 -12 16
2 44 -4 62 -13 27 -14 34 -15 41 -3 5 7 9 17 9 22 0 5 7 3 15 -4 8 -6 19 -9
25 -5 6 4 9 1 8 -6 -4 -15 89 -79 114 -79 9 0 34 -18 54 -40 21 -22 42 -40 47
-40 6 0 2 9 -8 20 -19 21 -7 28 13 8 7 -7 12 -8 12 -2 0 12 -36 44 -50 44 -11
0 -34 39 -27 46 9 9 37 -9 37 -23 0 -10 6 -13 16 -9 8 3 12 2 9 -4 -8 -13 43
-80 61 -80 7 0 18 -8 23 -17 6 -10 11 -14 11 -9 0 6 -10 21 -22 34 -23 26 -8
21 25 -6 29 -26 19 3 -13 33 -16 16 -28 31 -25 33 2 3 20 -13 39 -34 31 -34
32 -39 18 -50 -10 -7 -14 -15 -11 -19 4 -3 14 1 22 10 21 20 26 19 53 -11 13
-14 28 -23 33 -19 5 3 12 1 16 -5 4 -6 12 -4 22 5 12 13 13 18 2 31 -10 13
-10 17 0 23 10 7 9 18 -3 56 -21 60 -15 69 9 15 18 -40 29 -48 40 -30 3 5 12
7 20 4 8 -4 13 -10 10 -14 -5 -8 25 -103 31 -98 2 2 -5 37 -16 78 -10 44 -15
79 -10 84 6 6 2 15 -8 22 -23 18 -37 17 -22 -1 11 -13 10 -14 -1 -10 -8 3 -25
23 -38 45 -13 21 -27 39 -30 38 -17 -2 -71 16 -71 24 0 5 -4 6 -10 3 -5 -3
-10 -2 -10 4 0 6 -7 8 -15 4 -19 -7 -57 25 -48 40 4 6 1 7 -7 2 -7 -4 -16 -2
-22 6 -7 10 -7 7 -3 -8 8 -29 -2 -29 -24 -1 -13 15 -35 24 -72 29 -30 4 -74
14 -98 23 -24 9 -46 14 -49 12 -2 -3 7 -10 21 -15 43 -17 40 -31 -4 -16 -23 8
-56 15 -74 15 -19 0 -41 3 -51 7 -16 6 -16 7 2 14 17 7 17 8 2 8 -10 1 -18 5
-18 9 0 5 -13 7 -29 4 -16 -2 -32 1 -35 7 -8 13 -16 14 -34 2z m432 -102 c5
-5 6 -12 2 -16 -4 -4 -10 -3 -14 3 -4 6 -16 16 -27 23 -18 11 -18 11 5 5 14
-3 29 -10 34 -15z m56 -39 c8 -5 12 -11 10 -14 -3 -2 -14 2 -24 10 -22 15 -10
19 14 4z m-259 -15 c-1 -15 -24 -12 -29 3 -3 9 2 13 12 10 10 -1 17 -7 17 -13z
m-418 -2 c-7 -2 -21 -2 -30 0 -10 3 -4 5 12 5 17 0 24 -2 18 -5z m208 -11 c-7
-2 -18 1 -23 6 -8 8 -4 9 13 5 13 -4 18 -8 10 -11z m470 -19 c13 -16 12 -17
-3 -4 -17 13 -22 21 -14 21 2 0 10 -8 17 -17z m-169 -17 c13 -18 9 -26 -9 -19
-18 7 -33 22 -33 35 0 10 33 -3 42 -16z m366 -46 c7 -11 11 -20 9 -20 -2 0
-12 9 -22 20 -10 11 -14 20 -9 20 5 0 15 -9 22 -20z m-150 -31 c19 -30 11 -32
-11 -3 -10 13 -14 24 -10 24 5 0 14 -9 21 -21z m102 1 c0 -5 -4 -10 -10 -10
-5 0 -10 5 -10 10 0 6 5 10 10 10 6 0 10 -4 10 -10z m67 -22 c-3 -8 -6 -5 -6
6 -1 11 2 17 5 13 3 -3 4 -12 1 -19z m-117 -36 c0 -7 -4 -10 -10 -7 -5 3 -10
16 -10 28 0 18 2 19 10 7 5 -8 10 -21 10 -28z m57 6 c-3 -7 -5 -2 -5 12 0 14
2 19 5 13 2 -7 2 -19 0 -25z m-97 -3 c13 -14 21 -25 18 -25 -2 0 -15 11 -28
25 -13 14 -21 25 -18 25 2 0 15 -11 28 -25z"/>
<path d="M1973 5478 c-26 -33 -137 -38 -210 -10 -44 17 -53 17 -57 5 -9 -21
-8 -23 10 -16 14 5 15 3 5 -15 -10 -18 -9 -21 4 -16 11 4 15 0 15 -16 0 -19
-2 -20 -15 -10 -12 10 -15 10 -15 -4 0 -9 -4 -16 -10 -16 -5 0 -10 -5 -10 -10
0 -6 8 -5 20 2 22 14 39 3 22 -14 -18 -18 -15 -68 4 -68 9 0 14 -6 11 -12 -2
-7 -10 -12 -16 -10 -15 3 -14 -31 1 -46 8 -8 8 -15 -2 -27 -10 -12 -10 -15 0
-15 7 0 10 -8 7 -19 -2 -10 0 -26 6 -36 8 -14 7 -17 -4 -13 -19 7 -18 -80 1
-92 7 -4 9 -14 6 -21 -4 -8 0 -5 8 5 9 11 16 25 16 32 0 7 5 16 12 20 7 5 9 2
5 -9 -3 -8 -3 -27 1 -42 6 -21 11 -9 26 62 24 115 45 184 63 205 9 10 12 25 8
39 -10 30 13 15 26 -18 13 -34 33 -24 37 18 2 18 7 36 10 39 10 8 31 70 24 70
-10 0 -47 -93 -43 -109 2 -12 0 -13 -13 -2 -12 10 -13 18 -4 39 7 15 17 34 23
42 7 8 15 23 18 33 4 9 11 17 17 17 5 0 10 5 10 12 0 6 7 20 17 30 14 16 14
18 0 18 -8 0 -24 -10 -34 -22z m-51 -88 c-14 -27 -28 -47 -30 -45 -7 6 37 95
47 95 5 0 -2 -22 -17 -50z m-171 -61 c-6 -16 -10 -18 -10 -7 -1 22 12 55 16
42 2 -6 -1 -22 -6 -35z"/>
<path d="M2672 5487 c-6 -7 -14 -32 -18 -55 -3 -23 -11 -39 -16 -36 -5 3 -4
-3 4 -15 17 -27 27 -15 30 39 2 25 7 51 12 58 11 18 1 26 -12 9z"/>
<path d="M2531 5464 c0 -11 3 -14 6 -6 3 7 2 16 -1 19 -3 4 -6 -2 -5 -13z"/>
<path d="M2102 5450 c-19 -32 -13 -47 8 -20 11 14 20 28 20 33 0 14 -15 7 -28
-13z"/>
<path d="M2544 5446 c-14 -16 -34 -75 -33 -100 0 -12 5 -5 13 19 7 22 18 51
25 63 14 27 12 36 -5 18z"/>
<path d="M2590 5445 c0 -8 2 -15 4 -15 2 0 6 7 10 15 3 8 1 15 -4 15 -6 0 -10
-7 -10 -15z"/>
<path d="M2576 5411 c-4 -7 -5 -15 -2 -18 9 -9 19 4 14 18 -4 11 -6 11 -12 0z"/>
<path d="M2076 5387 c3 -10 9 -15 12 -12 3 3 0 11 -7 18 -10 9 -11 8 -5 -6z"/>
<path d="M2565 5358 c-1 -13 -4 -36 -7 -53 l-7 -30 14 30 c15 33 20 75 8 75
-5 0 -8 -10 -8 -22z"/>
<path d="M260 5356 c0 -2 7 -7 16 -10 8 -3 12 -2 9 4 -6 10 -25 14 -25 6z"/>
<path d="M2502 5300 c0 -14 2 -19 5 -12 2 6 2 18 0 25 -3 6 -5 1 -5 -13z"/>
<path d="M1960 5292 c0 -10 -4 -22 -9 -27 -5 -6 -6 -28 -1 -50 8 -43 10 -39
16 43 2 28 2 52 -1 52 -3 0 -5 -8 -5 -18z"/>
<path d="M3670 5286 c0 -9 7 -16 16 -16 17 0 14 22 -4 28 -7 2 -12 -3 -12 -12z"/>
<path d="M2530 5286 c0 -3 -16 -65 -35 -139 -35 -136 -43 -197 -25 -197 6 0
10 12 10 28 1 39 45 213 54 212 4 -1 10 1 14 4 3 3 0 6 -6 6 -8 0 -10 14 -5
45 3 25 3 45 -1 45 -3 0 -6 -2 -6 -4z"/>
<path d="M1881 5251 c-6 -11 -11 -27 -11 -36 0 -8 -6 -26 -14 -38 -27 -42 -50
-257 -27 -257 13 0 34 57 26 70 -3 6 -1 9 7 8 18 -4 51 68 54 117 2 22 3 42 4
45 0 3 5 -2 10 -10 17 -26 12 21 -5 54 -8 15 -15 34 -15 42 0 22 -18 26 -29 5z"/>
<path d="M3710 5260 c0 -6 7 -10 15 -10 8 0 15 2 15 4 0 2 -7 6 -15 10 -8 3
-15 1 -15 -4z"/>
<path d="M415 5250 c3 -5 8 -10 11 -10 2 0 4 5 4 10 0 6 -5 10 -11 10 -5 0 -7
-4 -4 -10z"/>
<path d="M3070 5240 c-14 -11 -21 -20 -17 -20 5 0 20 9 34 20 14 11 22 20 17
20 -5 0 -20 -9 -34 -20z"/>
<path d="M460 5224 c0 -3 6 -12 14 -20 11 -10 17 -11 22 -3 3 6 0 15 -7 20
-16 10 -29 12 -29 3z"/>
<path d="M4275 5219 c-4 -5 -4 -13 -1 -16 3 -4 6 0 6 8 0 11 2 11 10 -1 6 -9
10 -10 10 -3 0 17 -17 25 -25 12z"/>
<path d="M516 5188 c3 -4 9 -8 15 -8 5 0 9 4 9 8 0 5 -7 9 -15 9 -8 0 -12 -4
-9 -9z"/>
<path d="M1160 5190 c-9 -6 -10 -10 -3 -10 6 0 15 5 18 10 8 12 4 12 -15 0z"/>
<path d="M1206 5171 c-4 -6 -13 -8 -21 -4 -26 9 -16 -9 25 -48 22 -21 40 -46
40 -56 0 -15 2 -16 10 -3 7 11 10 11 10 2 0 -7 4 -11 9 -8 5 3 12 -5 15 -19 4
-14 13 -25 21 -25 15 0 19 -11 15 -39 -1 -9 4 -12 16 -7 10 4 15 4 11 0 -4 -4
-2 -13 4 -21 23 -27 -3 -11 -86 53 -47 36 -85 63 -85 60 0 -2 18 -24 39 -48
22 -24 52 -60 68 -80 15 -20 48 -62 72 -94 38 -50 57 -91 65 -144 1 -9 6 -22
11 -29 17 -28 9 -242 -13 -356 -12 -60 -24 -126 -26 -145 -3 -19 -5 -35 -6
-35 -2 0 -7 -19 -38 -160 -16 -71 -54 -240 -85 -375 -157 -697 -292 -1512
-332 -2006 l-7 -81 54 -6 c29 -4 82 -7 117 -7 62 0 64 1 107 45 24 24 44 49
44 54 0 6 6 8 14 5 9 -3 16 4 20 21 4 14 11 23 16 20 6 -3 10 -2 10 3 0 5 19
15 43 23 36 12 88 40 122 67 6 4 47 26 92 49 l81 41 -22 33 c-13 19 -26 45
-31 59 -4 15 6 5 25 -24 17 -26 33 -46 37 -43 3 3 1 12 -3 19 -5 7 -10 24 -12
38 -4 38 -11 52 -21 46 -13 -8 -71 42 -71 61 0 11 -5 13 -17 8 -10 -4 -29 -10
-43 -13 -14 -3 -35 -12 -48 -20 -12 -8 -26 -11 -30 -7 -4 4 -7 72 -6 151 l0
144 -28 0 c-35 0 -35 7 -7 166 11 66 29 171 39 234 10 63 35 201 56 305 21
105 38 210 37 234 0 30 2 39 9 30 6 -10 8 -2 6 24 -2 20 0 37 4 37 4 0 8 13 8
29 0 17 5 33 10 36 8 5 7 11 -1 21 -8 10 -8 14 0 14 6 0 11 9 11 21 0 29 -11
19 -79 -72 -34 -44 -61 -77 -61 -74 0 11 58 91 101 142 l41 47 -41 38 c-55 51
-52 60 4 14 75 -62 50 -17 -45 81 -79 82 -87 93 -69 98 18 6 20 13 16 41 -3
19 -2 34 4 34 5 0 9 6 8 13 -1 6 -1 26 0 42 l2 30 13 -30 c12 -25 15 -27 21
-13 4 10 11 15 16 12 5 -3 21 6 36 20 15 15 22 26 15 26 -6 0 -12 -4 -12 -10
0 -5 -4 -10 -10 -10 -16 0 -48 37 -41 46 8 11 52 13 45 2 -3 -4 0 -8 5 -8 13
0 15 27 2 32 -4 2 -11 14 -15 28 -7 24 -7 25 9 5 16 -19 16 -19 10 10 l-6 30
17 -27 c12 -17 33 -30 60 -37 52 -13 105 -15 86 -2 -16 10 -12 29 11 55 19 22
22 36 6 36 -6 0 -8 9 -4 20 5 17 2 20 -21 20 -27 0 -27 -1 -8 -15 17 -13 17
-14 2 -15 -9 0 -20 5 -23 10 -3 6 -18 8 -33 5 -22 -4 -23 -4 -7 3 16 7 8 11
-35 16 -30 4 -62 11 -70 17 -11 8 -6 9 20 5 19 -3 68 -8 109 -12 l74 -7 -7 34
c-9 44 -13 64 -20 120 -4 25 -9 57 -11 70 -12 76 -32 332 -40 516 l-3 82 -64
75 c-34 41 -68 75 -75 75 -7 1 -19 13 -28 29 l-16 27 4 -31 c2 -23 0 -31 -10
-27 -7 3 -13 -2 -13 -11 0 -11 7 -16 18 -14 13 2 16 -3 14 -19 -2 -13 2 -23 8
-23 6 0 9 -4 5 -10 -7 -12 -35 -1 -35 14 0 7 -18 22 -40 35 -22 12 -40 19 -40
15 0 -3 -7 -1 -15 6 -8 7 -15 29 -15 50 0 33 -3 38 -27 43 -16 3 -31 1 -34 -4
-8 -13 -39 0 -40 17 -3 27 -4 32 -10 39 -4 3 -10 2 -13 -4z m294 -241 c0 -5
-4 -10 -10 -10 -5 0 -10 5 -10 10 0 6 5 10 10 10 6 0 10 -4 10 -10z m-99 -37
c13 -16 12 -17 -3 -4 -10 7 -18 15 -18 17 0 8 8 3 21 -13z m129 7 c0 -5 -5
-10 -11 -10 -5 0 -7 5 -4 10 3 6 8 10 11 10 2 0 4 -4 4 -10z m27 -37 c3 -7 -4
-9 -16 -6 -12 3 -18 9 -15 15 7 11 26 6 31 -9z m-87 -748 c16 -9 19 -14 9 -15
-8 0 -24 7 -35 15 -24 18 -7 19 26 0z m175 -173 c-3 -3 -11 0 -18 7 -9 10 -8
11 6 5 10 -3 15 -9 12 -12z m-232 -79 c-7 -2 -19 -2 -25 0 -7 3 -2 5 12 5 14
0 19 -2 13 -5z"/>
<path d="M1346 5155 c4 -8 10 -15 15 -15 4 0 6 7 3 15 -4 8 -10 15 -15 15 -4
0 -6 -7 -3 -15z"/>
<path d="M4211 5150 c-1 -14 8 -38 20 -55 19 -28 20 -28 14 -5 -4 14 -13 39
-20 55 -13 29 -13 29 -14 5z"/>
<path d="M870 5135 c0 -8 34 -45 42 -45 16 0 7 18 -17 34 -14 9 -25 14 -25 11z"/>
<path d="M1383 5088 c-13 -6 -23 -16 -23 -22 0 -6 5 -5 12 2 7 7 26 12 43 12
23 0 26 3 15 10 -18 12 -19 12 -47 -2z"/>
<path d="M2431 5084 c0 -11 3 -14 6 -6 3 7 2 16 -1 19 -3 4 -6 -2 -5 -13z"/>
<path d="M2502 5045 c-6 -27 -9 -51 -7 -53 6 -6 26 79 22 91 -2 7 -9 -10 -15
-38z"/>
<path d="M690 5065 c0 -8 7 -15 15 -15 8 0 15 4 15 9 0 5 -7 11 -15 15 -9 3
-15 0 -15 -9z"/>
<path d="M960 5052 c0 -12 19 -26 26 -19 2 2 -2 10 -11 17 -9 8 -15 8 -15 2z"/>
<path d="M740 5037 c0 -8 9 -22 20 -32 11 -10 20 -13 20 -8 0 6 -7 14 -16 17
-8 3 -13 10 -9 15 3 5 1 12 -5 16 -5 3 -10 0 -10 -8z"/>
<path d="M795 4980 c3 -5 8 -10 11 -10 2 0 4 5 4 10 0 6 -5 10 -11 10 -5 0 -7
-4 -4 -10z"/>
<path d="M880 4910 c30 -27 61 -48 68 -45 7 3 11 1 8 -4 -3 -4 4 -17 16 -27
11 -11 19 -14 17 -9 -19 43 -34 65 -47 65 -7 0 -32 16 -55 35 -63 54 -69 41
-7 -15z"/>
<path d="M1786 4935 c-7 -18 18 -91 30 -88 5 2 10 14 11 28 1 14 -2 23 -8 20
-5 -4 -9 5 -9 19 0 29 -15 43 -24 21z"/>
<path d="M1731 4924 c0 -11 3 -14 6 -6 3 7 2 16 -1 19 -3 4 -6 -2 -5 -13z"/>
<path d="M1751 4884 c-6 -22 -11 -48 -11 -59 1 -18 3 -17 26 8 17 20 23 35 18
50 -12 40 -22 40 -33 1z"/>
<path d="M1722 4865 c0 -16 2 -22 5 -12 2 9 2 23 0 30 -3 6 -5 -1 -5 -18z"/>
<path d="M5693 4873 c9 -2 23 -2 30 0 6 3 -1 5 -18 5 -16 0 -22 -2 -12 -5z"/>
<path d="M3840 4860 c20 -13 33 -13 25 0 -3 6 -14 10 -23 10 -15 0 -15 -2 -2
-10z"/>
<path d="M7340 4861 c0 -6 4 -13 10 -16 6 -3 7 1 4 9 -7 18 -14 21 -14 7z"/>
<path d="M1760 4805 c-16 -26 -19 -43 -14 -70 7 -37 27 -43 32 -9 2 10 10 33
18 51 14 30 10 63 -6 63 -5 0 -18 -16 -30 -35z m11 -32 c-12 -20 -14 -14 -5
12 4 9 9 14 11 11 3 -2 0 -13 -6 -23z"/>
<path d="M3941 4813 c7 -10 35 -39 61 -65 27 -26 48 -52 48 -58 0 -7 -7 -5
-16 4 -17 18 -28 21 -19 6 3 -5 1 -18 -4 -29 -10 -18 -13 -18 -78 15 -38 18
-86 36 -108 39 -22 2 -58 7 -80 11 -50 7 -157 6 -210 -2 -22 -3 -75 -7 -117
-9 -43 -2 -82 -6 -87 -9 -5 -3 -17 -3 -27 1 -11 4 -15 3 -10 -5 10 -16 -26
-32 -72 -32 -23 0 -45 -6 -52 -15 -8 -9 -8 -15 -2 -15 6 0 17 -7 26 -15 22
-23 104 -56 111 -45 6 9 43 -6 55 -22 3 -4 18 -11 33 -17 23 -9 27 -8 28 7 0
10 3 12 6 5 2 -7 11 -13 19 -13 8 0 14 -6 14 -14 0 -8 7 -16 15 -20 8 -3 15
-1 15 3 0 5 3 18 7 28 6 16 5 16 -10 4 -15 -12 -17 -11 -17 8 0 15 4 20 13 14
6 -4 4 5 -5 20 -22 33 -24 77 -3 77 8 0 15 4 15 9 0 5 7 12 16 15 14 6 15 4 3
-10 -11 -13 -11 -15 2 -14 26 4 40 0 34 -10 -3 -6 4 -10 18 -10 32 0 40 -10
19 -26 -23 -18 -30 -17 -36 4 -3 9 -3 -3 0 -28 3 -25 8 -52 10 -62 11 -39 118
-78 214 -78 66 0 68 0 93 38 34 49 51 97 43 127 -3 13 -2 27 4 30 5 3 10 1 10
-5 0 -7 6 -10 13 -7 14 5 77 -47 77 -64 0 -5 6 -9 13 -9 14 -1 57 -34 57 -45
0 -13 -37 -54 -43 -48 -10 9 -93 -7 -113 -22 -17 -13 -17 -16 -4 -25 12 -8 11
-10 -8 -10 -13 0 -21 4 -18 8 2 4 1 14 -4 21 -6 11 -11 9 -20 -8 -6 -13 -18
-20 -25 -17 -9 3 -12 0 -9 -8 4 -10 -4 -12 -30 -9 -21 2 -36 -1 -36 -7 0 -6 6
-10 13 -9 6 1 34 1 60 0 l48 -1 -25 -27 c-24 -26 -24 -28 -8 -38 10 -5 16 -18
14 -27 -2 -10 1 -18 7 -18 6 0 11 7 11 15 0 20 27 19 47 -1 11 -11 19 -12 26
-5 17 17 51 13 70 -9 13 -15 22 -18 40 -11 45 17 133 80 188 134 43 42 47 52
24 61 -10 4 -15 -1 -15 -14 0 -12 -7 -20 -16 -20 -11 0 -15 -6 -12 -18 4 -12
-1 -18 -13 -19 -11 -1 -19 5 -20 15 0 11 -2 13 -6 4 -4 -10 -8 -10 -19 -1 -11
9 -14 8 -14 -5 0 -14 -6 -16 -37 -9 -55 11 -96 6 -106 -12 -6 -12 -17 -14 -37
-10 -21 5 -34 1 -49 -14 -19 -19 -21 -19 -21 -3 0 10 -6 24 -12 31 -11 11 -4
12 40 7 39 -5 58 -3 74 9 13 8 31 15 41 15 10 0 16 4 13 9 -3 4 5 6 18 4 12
-3 38 2 57 10 32 13 35 17 31 50 -2 20 -14 45 -28 58 -24 23 -32 49 -15 49 5
0 11 -6 14 -12 3 -10 8 -10 16 -2 12 11 -10 41 -81 115 -9 10 -14 20 -11 22 2
3 -11 10 -30 16 -19 6 -39 22 -46 34 -6 12 -26 30 -43 40 -30 17 -31 17 -17 0z
m-617 -144 c-3 -5 -10 -7 -15 -3 -5 3 -7 10 -3 15 3 5 10 7 15 3 5 -3 7 -10 3
-15z m386 -32 c0 -5 -4 -5 -10 -2 -5 3 -10 14 -10 23 0 15 2 15 10 2 5 -8 10
-19 10 -23z m105 15 c35 -4 39 -7 30 -21 -9 -16 -95 -14 -95 2 0 17 22 39 29
29 3 -4 19 -8 36 -10z m225 -2 c-8 -5 -17 -7 -19 -4 -3 3 1 9 9 14 8 5 17 7
19 4 3 -3 -1 -9 -9 -14z m-330 -55 c0 -5 -4 -16 -9 -23 -7 -11 -9 -10 -15 3
-5 15 -9 14 -35 -4 -36 -26 -43 -26 -66 -1 -18 20 -19 20 25 33 27 8 100 2
100 -8z m404 -116 c-9 -15 -44 -11 -38 5 3 8 13 12 25 9 10 -3 16 -9 13 -14z
m66 -109 c0 -5 -4 -10 -10 -10 -5 0 -10 5 -10 10 0 6 5 10 10 10 6 0 10 -4 10
-10z"/>
<path d="M2437 4793 c-3 -16 -1 -32 4 -37 5 -6 9 4 9 27 0 44 -6 48 -13 10z"/>
<path d="M5810 4816 c0 -2 7 -6 15 -10 8 -3 15 -1 15 4 0 6 -7 10 -15 10 -8 0
-15 -2 -15 -4z"/>
<path d="M1741 4654 c0 -11 3 -14 6 -6 3 7 2 16 -1 19 -3 4 -6 -2 -5 -13z"/>
<path d="M1804 4643 c-1 -62 -5 -81 -16 -86 -10 -3 -12 10 -10 52 2 41 0 52
-8 41 -5 -8 -7 -28 -4 -45 4 -23 3 -26 -5 -15 -8 11 -11 -6 -11 -65 1 -73 2
-78 15 -61 14 18 15 18 15 2 0 -9 -4 -26 -10 -36 -5 -10 -7 -25 -4 -34 8 -21
34 -8 34 17 0 20 0 20 -15 1 -17 -22 -20 -12 -4 17 5 11 17 63 25 116 16 111
17 123 6 123 -4 0 -8 -12 -8 -27z"/>
<path d="M2170 4627 c0 -1 -9 -27 -21 -57 -17 -46 -21 -84 -24 -228 -2 -96 0
-170 5 -167 18 11 53 97 42 104 -18 11 -1 246 24 334 4 11 0 17 -10 17 -9 0
-16 -1 -16 -3z"/>
<path d="M3375 4490 c8 -13 96 -51 108 -47 10 3 -88 57 -105 57 -5 0 -6 -4 -3
-10z"/>
<path d="M3580 4475 c0 -16 16 -20 24 -6 3 5 -1 11 -9 15 -9 3 -15 0 -15 -9z"/>
<path d="M3520 4470 c0 -5 6 -10 14 -10 8 0 18 5 21 10 3 6 -3 10 -14 10 -12
0 -21 -4 -21 -10z"/>
<path d="M5076 4443 c4 -16 11 -33 16 -39 5 -7 -1 -17 -17 -28 -30 -20 -57
-59 -61 -89 -1 -12 -5 -30 -9 -39 -4 -10 -3 -18 3 -18 6 0 16 -17 23 -37 7
-21 14 -32 17 -25 2 9 19 1 53 -23 27 -19 53 -35 58 -35 5 0 14 -7 21 -15 8
-9 9 -15 2 -15 -6 0 -14 5 -17 10 -3 6 -15 10 -25 10 -10 0 -20 6 -23 13 -3 8
-7 6 -12 -6 -4 -10 -2 -30 4 -44 9 -20 16 -24 37 -19 20 5 27 3 31 -14 3 -11
10 -20 15 -20 5 0 7 10 4 23 l-6 22 11 -22 c14 -26 29 -30 29 -8 0 9 6 12 15
9 11 -5 13 -10 5 -19 -7 -9 -7 -15 -1 -19 5 -4 12 -2 16 4 4 6 11 8 16 5 5 -4
16 1 25 9 17 18 34 21 34 6 0 -5 19 -15 43 -21 23 -7 47 -17 54 -22 7 -5 17
-6 22 -2 6 3 20 1 31 -5 17 -9 20 -8 20 10 0 11 -6 20 -14 20 -8 0 -16 6 -19
13 -3 9 -9 9 -25 0 -13 -8 -23 -9 -27 -3 -3 6 -19 10 -35 10 -16 0 -32 5 -35
10 -3 6 -12 10 -20 10 -16 0 -101 55 -112 72 -3 7 9 3 28 -9 58 -34 142 -62
197 -66 52 -3 55 -2 93 41 l39 45 26 -28 26 -29 -23 -9 c-13 -6 -33 -12 -44
-14 -10 -2 -22 -8 -26 -15 -4 -6 -12 -7 -18 -4 -18 11 -13 -14 9 -45 14 -18
26 -26 36 -22 15 5 15 7 0 15 -30 17 -6 28 50 24 30 -2 66 -11 79 -20 14 -9
30 -14 36 -10 6 3 17 -2 24 -12 14 -18 14 -18 15 6 0 25 1 25 18 5 9 -12 26
-27 36 -35 18 -14 19 -13 13 4 -6 14 -4 17 9 12 8 -3 25 -6 35 -6 11 0 17 -4
14 -10 -4 -6 5 -10 20 -10 27 0 47 -14 58 -40 3 -9 6 -4 6 12 1 15 -3 30 -9
33 -5 3 -10 15 -10 27 0 17 2 18 15 8 29 -24 27 -1 -4 42 -17 23 -31 50 -31
60 0 10 -4 18 -10 18 -5 0 -10 8 -10 18 0 17 -32 52 -48 52 -4 0 -19 12 -33
28 -41 45 -100 94 -106 88 -3 -3 13 -24 36 -47 22 -23 41 -47 41 -54 0 -6 20
-34 44 -61 25 -27 43 -50 41 -52 -4 -5 -60 24 -77 40 -23 22 -58 39 -58 29 0
-6 8 -15 18 -20 9 -6 12 -11 5 -11 -6 0 -18 7 -27 15 -8 8 -19 15 -24 15 -6 0
-12 4 -14 8 -4 9 -96 72 -106 72 -4 1 -23 14 -42 30 -19 17 -38 30 -43 30 -11
0 -141 61 -147 69 -3 4 -18 8 -35 9 -29 2 -62 22 -36 22 8 0 11 6 7 15 -3 8
-1 15 4 15 6 0 10 -7 10 -15 0 -8 5 -15 10 -15 6 0 10 4 10 10 0 15 70 23 116
13 54 -12 59 0 7 15 -111 32 -323 53 -323 32 0 -12 -24 -40 -34 -40 -3 0 -3 7
0 15 4 8 1 15 -7 15 -7 0 -9 3 -6 6 8 9 -11 44 -24 44 -5 0 -7 -12 -3 -27z
m149 -175 c-3 -13 -9 -44 -12 -70 -6 -54 -26 -63 -58 -28 -12 14 -25 18 -41
14 -21 -6 -24 -3 -24 25 0 26 6 33 43 50 38 17 67 27 91 30 4 0 5 -9 1 -21z
m148 -38 c3 -11 2 -20 -3 -20 -12 0 -31 26 -23 33 11 12 21 7 26 -13z m57 5
c7 -9 8 -15 2 -15 -5 0 -12 7 -16 15 -3 8 -4 15 -2 15 2 0 9 -7 16 -15z m23
-32 c-7 -2 -21 -2 -30 0 -10 3 -4 5 12 5 17 0 24 -2 18 -5z m-163 -173 c0 -5
-2 -10 -4 -10 -3 0 -8 5 -11 10 -3 6 -1 10 4 10 6 0 11 -4 11 -10z"/>
<path d="M2477 4443 c-4 -3 -7 -13 -7 -22 1 -13 3 -13 11 2 11 19 8 33 -4 20z"/>
<path d="M5050 4422 c0 -10 -5 -23 -12 -30 -9 -9 -9 -12 0 -12 12 0 32 31 32
49 0 6 -4 11 -10 11 -5 0 -10 -8 -10 -18z"/>
<path d="M7270 4420 c-6 -11 -8 -20 -6 -20 3 0 10 9 16 20 6 11 8 20 6 20 -3
0 -10 -9 -16 -20z"/>
<path d="M3543 4424 c4 -4 28 -10 54 -15 27 -4 53 -8 58 -9 6 -1 33 -1 60 0
l50 2 -55 9 c-93 14 -174 20 -167 13z"/>
<path d="M1793 4373 c-16 -6 -17 -37 -1 -62 9 -14 9 -31 1 -65 -11 -48 -5 -56
26 -37 12 8 13 17 4 48 -6 21 -11 56 -12 78 -2 45 -2 44 -18 38z"/>
<path d="M3750 4368 c0 -6 3 -8 7 -5 3 4 12 2 20 -4 8 -7 13 -8 13 -1 0 5 -7
13 -16 16 -22 8 -24 8 -24 -6z"/>
<path d="M3812 4368 c-19 -19 -14 -39 14 -65 18 -17 25 -19 20 -8 -3 9 -6 19
-6 21 0 2 -7 4 -15 4 -20 0 -19 19 2 42 18 20 4 25 -15 6z"/>
<path d="M7245 4372 c-5 -4 -19 -23 -29 -42 -24 -43 1 -26 27 19 19 32 19 36
2 23z"/>
<path d="M2210 4349 c0 -5 5 -7 10 -4 6 3 10 8 10 11 0 2 -4 4 -10 4 -5 0 -10
-5 -10 -11z"/>
<path d="M1835 4329 c-4 -6 -5 -13 -2 -16 7 -7 27 6 27 18 0 12 -17 12 -25 -2z"/>
<path d="M1841 4292 c-6 -11 -8 -22 -5 -25 10 -9 34 4 34 18 0 23 -18 27 -29
7z"/>
<path d="M1770 4290 c0 -5 5 -10 10 -10 6 0 10 5 10 10 0 6 -4 10 -10 10 -5 0
-10 -4 -10 -10z"/>
<path d="M3985 4271 c-6 -11 20 -33 28 -24 4 3 7 10 7 14 0 11 -29 19 -35 10z"/>
<path d="M1848 4238 c9 -9 15 -9 24 0 9 9 7 12 -12 12 -19 0 -21 -3 -12 -12z"/>
<path d="M1828 4187 c-7 -8 -20 -12 -28 -10 -13 4 -13 3 0 -6 13 -10 13 -12 0
-21 -12 -8 -11 -10 7 -10 14 0 27 10 37 30 15 31 7 40 -16 17z"/>
<path d="M6143 4146 c-13 -6 -23 -14 -23 -18 0 -13 10 -9 37 12 28 22 22 24
-14 6z"/>
<path d="M5030 4143 c0 -5 5 -15 10 -23 8 -12 10 -11 10 8 0 12 -4 22 -10 22
-5 0 -10 -3 -10 -7z"/>
<path d="M2186 4020 c-14 -59 -10 -129 9 -153 7 -10 31 -21 52 -24 37 -5 39
-7 35 -36 -5 -33 16 -57 50 -57 46 0 81 148 43 180 -8 7 -13 15 -11 19 6 8 -3
22 -27 40 -15 12 -20 12 -33 -5 -14 -17 -15 -17 -10 -1 6 20 -36 41 -66 34
-10 -3 -22 2 -27 11 -8 14 -10 13 -15 -8z m141 -52 c-3 -8 -6 -5 -6 6 -1 11 2
17 5 13 3 -3 4 -12 1 -19z"/>
<path d="M1645 3870 c-19 -8 -19 -9 2 -9 12 -1 25 4 28 9 7 12 -2 12 -30 0z"/>
<path d="M1765 3830 c-3 -5 1 -10 9 -10 8 0 18 5 21 10 3 6 -1 10 -9 10 -8 0
-18 -4 -21 -10z"/>
<path d="M1736 3802 c-3 -6 -1 -14 5 -17 14 -9 20 -2 10 14 -6 8 -11 9 -15 3z"/>
<path d="M1590 3672 c0 -5 7 -13 16 -16 10 -4 14 -1 12 6 -5 15 -28 23 -28 10z"/>
<path d="M1460 3646 c0 -15 38 -52 46 -44 3 3 -6 17 -20 31 -15 15 -26 20 -26
13z"/>
<path d="M4194 3561 c-45 -20 -61 -46 -43 -68 7 -7 14 -11 17 -9 2 3 21 -4 40
-15 44 -23 90 -25 99 -4 3 9 14 15 24 13 10 -2 24 5 32 16 11 15 17 17 35 7
13 -7 19 -17 16 -26 -7 -18 22 -49 37 -39 8 4 9 3 5 -4 -4 -7 -3 -12 3 -12 28
0 17 26 -33 78 -78 82 -148 101 -232 63z"/>
<path d="M4772 3410 c-40 -29 -50 -52 -34 -76 10 -15 114 -25 135 -13 20 11
22 50 6 82 -25 46 -51 48 -107 7z"/>
<path d="M4748 3222 c-32 -4 -37 -18 -9 -27 43 -13 80 -13 92 1 21 26 -7 35
-83 26z"/>
<path d="M3713 2749 c-3 -19 -11 -28 -18 -25 -7 2 -21 -1 -31 -8 -12 -9 -28
-11 -52 -5 -32 7 -72 -2 -72 -17 0 -8 60 -63 60 -56 0 4 6 0 13 -9 13 -17 82
-15 71 2 -3 5 2 9 10 9 9 0 16 -4 16 -10 0 -5 11 -10 25 -10 18 0 25 -5 25
-20 0 -11 5 -20 10 -20 6 0 10 5 10 11 0 7 11 9 30 6 16 -4 32 -2 35 2 6 11
47 2 57 -13 5 -8 8 -7 8 2 0 6 5 12 10 12 6 0 10 -7 10 -15 0 -8 5 -15 10 -15
6 0 8 11 4 26 -5 20 -3 25 7 22 8 -3 13 -14 11 -25 -2 -15 4 -22 23 -27 17 -4
25 -13 25 -27 0 -19 2 -20 17 -8 13 11 17 11 20 2 3 -7 9 -13 15 -13 5 0 7 8
3 19 -7 24 22 51 35 32 4 -8 13 -10 19 -6 8 5 10 -2 6 -22 -3 -15 -2 -22 1
-15 3 6 21 12 39 12 22 0 38 6 44 18 7 11 11 12 11 4 0 -8 6 -12 13 -9 7 2 16
-12 24 -37 10 -36 11 -37 12 -13 1 22 5 28 19 25 9 -2 16 -10 14 -17 -3 -14
16 -41 28 -41 4 0 10 8 12 18 7 25 58 28 65 4 2 -10 13 -24 25 -31 17 -10 22
-10 32 5 12 16 14 15 20 -11 4 -15 10 -25 13 -22 3 3 12 0 20 -8 9 -9 27 -13
49 -10 25 3 34 0 34 -10 0 -18 21 -20 38 -3 9 9 12 9 12 -1 0 -8 6 -11 16 -7
11 4 22 -1 31 -14 11 -16 18 -18 28 -10 15 12 65 3 65 -12 0 -5 5 -6 12 -2 6
4 8 3 5 -3 -4 -6 0 -16 7 -22 9 -8 16 -8 20 -2 4 6 13 8 21 4 8 -3 15 -1 15 4
0 5 10 9 23 9 15 -1 23 5 25 20 2 17 -5 24 -28 33 -18 6 -34 19 -37 30 -3 13
-11 17 -24 14 -10 -3 -19 -1 -19 4 0 17 -65 83 -82 83 -9 0 -20 5 -23 11 -4 6
-13 8 -20 6 -6 -3 -19 3 -27 13 -9 10 -22 20 -29 24 -11 5 -11 7 -1 12 6 3 9
10 6 16 -4 7 -14 1 -25 -13 l-18 -24 -25 28 c-13 15 -26 23 -28 18 -1 -5 -16
-13 -32 -17 -26 -6 -28 -5 -21 15 4 15 2 21 -9 21 -9 0 -13 6 -10 14 7 18 -28
38 -50 30 -9 -3 -16 -10 -16 -14 0 -17 -45 -20 -57 -4 -8 11 -21 15 -39 11
-24 -4 -26 -3 -20 24 4 21 2 27 -8 23 -8 -3 -17 -21 -20 -40 -8 -38 -31 -46
-39 -13 -4 13 -11 19 -19 16 -8 -3 -24 6 -37 19 -32 33 -48 30 -42 -8 2 -16
-19 -7 -34 15 -8 12 -18 21 -20 20 -3 -1 -12 0 -22 4 -10 4 -19 1 -21 -6 -3
-9 -7 -9 -18 0 -11 9 -18 9 -26 1 -7 -7 -20 -6 -45 6 -30 14 -35 14 -44 2 -7
-10 -12 -11 -15 -4 -5 13 -74 -5 -74 -20 0 -4 -7 -3 -15 4 -8 6 -20 8 -26 4
-9 -5 -10 -2 -6 11 7 18 -8 45 -24 45 -5 0 -12 -14 -16 -31z m21 -34 c3 -8 1
-15 -4 -15 -6 0 -10 7 -10 15 0 8 2 15 4 15 2 0 6 -7 10 -15z m181 -94 c-3 -6
-11 -11 -17 -11 -6 0 -6 6 2 15 14 17 26 13 15 -4z m445 9 c0 -5 -7 -10 -16
-10 -8 0 -12 5 -9 10 3 6 10 10 16 10 5 0 9 -4 9 -10z m-180 -60 c0 -5 -4 -10
-10 -10 -5 0 -10 5 -10 10 0 6 5 10 10 10 6 0 10 -4 10 -10z m277 -97 c-3 -3
-11 -2 -17 2 -8 5 -7 11 2 22 12 15 13 14 16 -1 2 -10 1 -20 -1 -23z"/>
<path d="M4553 2751 c-29 -24 -29 -41 -1 -38 22 2 49 35 41 50 -6 11 -16 8
-40 -12z"/>
<path d="M4430 2734 c0 -15 -10 -14 -57 3 -7 3 -13 0 -13 -5 0 -6 8 -13 18
-15 13 -4 11 -5 -5 -6 -31 -1 -29 -21 2 -21 14 0 25 4 25 10 0 5 7 7 15 4 8
-4 22 -1 30 6 8 6 19 9 25 5 5 -3 10 -2 10 4 0 9 -31 31 -44 31 -3 0 -6 -7 -6
-16z"/>
<path d="M4236 2725 c-3 -8 -1 -15 4 -15 6 0 10 7 10 15 0 8 -2 15 -4 15 -2 0
-6 -7 -10 -15z"/>
<path d="M4330 2729 c0 -5 5 -7 10 -4 6 3 10 8 10 11 0 2 -4 4 -10 4 -5 0 -10
-5 -10 -11z"/>
<path d="M4200 2720 c0 -5 5 -10 10 -10 6 0 10 5 10 10 0 6 -4 10 -10 10 -5 0
-10 -4 -10 -10z"/>
<path d="M5968 2655 c-3 -11 -9 -29 -13 -40 -3 -11 1 -7 10 8 9 16 15 33 12
40 -2 6 -6 3 -9 -8z"/>
<path d="M5977 2613 c-4 -3 -7 -11 -7 -17 0 -6 5 -5 12 2 6 6 9 14 7 17 -3 3
-9 2 -12 -2z"/>
<path d="M1695 2579 c-11 -16 -1 -19 13 -3 7 8 8 14 3 14 -5 0 -13 -5 -16 -11z"/>
<path d="M1706 2555 c-3 -8 -1 -15 5 -15 6 0 7 -4 4 -10 -3 -5 -1 -10 5 -10 7
0 9 8 5 22 -6 17 -4 20 9 15 9 -4 16 -2 16 3 0 16 -37 11 -44 -5z"/>
<path d="M3991 2534 c0 -11 3 -14 6 -6 3 7 2 16 -1 19 -3 4 -6 -2 -5 -13z"/>
<path d="M1740 2495 c0 -5 5 -17 10 -25 5 -8 10 -10 10 -5 0 6 -5 17 -10 25
-5 8 -10 11 -10 5z"/>
<path d="M1795 2460 c-3 -5 -2 -10 4 -10 5 0 13 5 16 10 3 6 2 10 -4 10 -5 0
-13 -4 -16 -10z"/>
<path d="M4090 2216 c0 -8 11 -16 25 -19 31 -5 28 13 -3 24 -16 6 -22 5 -22
-5z"/>
<path d="M4240 2174 c0 -8 9 -14 20 -14 11 0 20 4 20 9 0 5 -9 11 -20 14 -13
3 -20 0 -20 -9z"/>
<path d="M7 2119 c7 -7 15 -10 18 -7 3 3 -2 9 -12 12 -14 6 -15 5 -6 -5z"/>
<path d="M6340 2111 c0 -5 7 -12 16 -15 14 -5 15 -4 4 9 -14 17 -20 19 -20 6z"/>
<path d="M26 2092 c-3 -5 1 -9 9 -9 8 0 12 4 9 9 -3 4 -7 8 -9 8 -2 0 -6 -4
-9 -8z"/>
<path d="M80 2046 c0 -2 8 -10 18 -17 15 -13 16 -12 3 4 -13 16 -21 21 -21 13z"/>
<path d="M126 1985 c-3 -8 -1 -15 4 -15 6 0 10 7 10 15 0 8 -2 15 -4 15 -2 0
-6 -7 -10 -15z"/>
<path d="M1750 1870 c20 -13 33 -13 25 0 -3 6 -14 10 -23 10 -15 0 -15 -2 -2
-10z"/>
<path d="M1960 1750 c0 -13 28 -25 38 -16 3 4 0 11 -8 16 -20 13 -30 12 -30 0z"/>
<path d="M5176 1381 c-12 -5 -15 -10 -9 -14 6 -4 16 0 23 8 14 17 13 17 -14 6z"/>
<path d="M5090 1369 c0 -5 5 -7 10 -4 6 3 10 8 10 11 0 2 -4 4 -10 4 -5 0 -10
-5 -10 -11z"/>
<path d="M3575 1290 c3 -5 10 -10 16 -10 5 0 9 5 9 10 0 6 -7 10 -16 10 -8 0
-12 -4 -9 -10z"/>
<path d="M3865 1180 c-3 -5 1 -10 9 -10 9 0 16 5 16 10 0 6 -4 10 -9 10 -6 0
-13 -4 -16 -10z"/>
<path d="M4210 1120 c-13 -8 -12 -10 3 -10 9 0 17 5 17 10 0 12 -1 12 -20 0z"/>
<path d="M7466 1113 c-6 -14 -5 -15 5 -6 7 7 10 15 7 18 -3 3 -9 -2 -12 -12z"/>
<path d="M3880 1090 c-12 -8 -11 -10 8 -10 12 0 22 5 22 10 0 13 -11 13 -30 0z"/>
<path d="M4050 1080 l-25 -8 28 -1 c15 -1 27 4 27 9 0 6 -1 10 -2 9 -2 -1 -14
-5 -28 -9z"/>
<path d="M3940 1070 c0 -5 5 -10 10 -10 6 0 10 5 10 10 0 6 -4 10 -10 10 -5 0
-10 -4 -10 -10z"/>
<path d="M7421 1042 c-6 -12 -11 -27 -11 -34 0 -7 7 0 15 16 9 16 13 31 11 33
-2 3 -9 -4 -15 -15z"/>
<path d="M6300 956 c0 -7 -7 -19 -15 -26 -21 -17 -20 -44 1 -36 12 4 15 2 10
-9 -4 -10 12 -26 51 -51 31 -20 101 -76 155 -124 112 -101 177 -137 263 -145
67 -6 171 14 168 33 -2 6 3 9 10 6 8 -3 48 6 90 20 112 37 187 48 327 52 69 1
128 3 133 3 4 1 7 18 7 40 l0 38 -93 7 c-113 8 -250 -7 -360 -40 -45 -14 -111
-34 -147 -44 -79 -24 -153 -25 -217 -4 -73 25 -111 54 -295 230 -68 64 -88 76
-88 50z"/>
<path d="M6007 943 c-4 -3 -7 -15 -7 -26 0 -16 3 -17 15 -7 8 7 15 19 15 26 0
15 -12 19 -23 7z"/>
<path d="M4605 469 c-4 -6 -5 -12 -2 -15 2 -3 7 2 10 11 7 17 1 20 -8 4z"/>
<path d="M4420 350 c0 -5 7 -10 15 -10 8 0 15 5 15 10 0 6 -7 10 -15 10 -8 0
-15 -4 -15 -10z"/>
<path d="M4320 275 c-11 -13 -10 -14 4 -9 9 3 16 10 16 15 0 13 -6 11 -20 -6z"/>
</g>
</svg>
